<?xml version="1.0" encoding="UTF-8"?>
<svg xmlns="http://www.w3.org/2000/svg" width="398" height="345" viewBox="0 0 398 345" fill="none">
  <rect width="398" height="345" fill="#E0F8FA"></rect>
  <path d="M284.642 248.344H218.299C220.855 243.808 222.536 239.265 223.336 234.723C223.563 233.499 223.716 232.278 223.802 231.054H279.14C279.237 232.296 279.384 233.519 279.579 234.723C280.375 239.601 282.001 244.169 284.642 248.344Z" fill="#545ED7"></path>
  <path d="M279.581 234.723H223.338C223.565 233.499 223.718 232.278 223.803 231.054H279.141C279.239 232.296 279.386 233.519 279.581 234.723Z" fill="#3E4BD4"></path>
  <path d="M290.948 253.574H211.994C211.994 250.402 214.565 247.833 217.736 247.833H285.205C288.377 247.833 290.946 250.404 290.946 253.574H290.948Z" fill="#545ED7"></path>
  <path d="M348.883 91H154.061C149.578 91 145.943 94.6343 145.943 99.1175V223.473C145.943 227.956 149.578 231.59 154.061 231.59H348.883C353.366 231.59 357 227.956 357 223.473V99.1175C357 94.6343 353.366 91 348.883 91Z" fill="#545ED7"></path>
  <path d="M148.389 91H354.555C355.905 91 357 92.0957 357 93.4452V219.358H145.943V93.4452C145.943 92.0957 147.039 91 148.389 91Z" fill="#464646"></path>
  <path d="M353.969 216.247V94.1116L148.971 94.1116V216.247H353.969Z" fill="white"></path>
  <path d="M268.961 248.142H220.049C219.878 248.142 219.738 248.002 219.738 247.831C219.738 247.66 219.878 247.521 220.049 247.521H268.961C269.132 247.521 269.272 247.66 269.272 247.831C269.272 248.002 269.132 248.142 268.961 248.142Z" fill="white"></path>
  <path d="M189.668 204.662C189.668 204.662 189.669 204.664 189.671 204.664C189.671 204.664 189.669 204.663 189.668 204.662Z" fill="#FFCDC7"></path>
  <path d="M193.42 213.735C193.41 213.716 193.398 213.696 193.389 213.675C193.399 213.696 193.41 213.716 193.42 213.735Z" fill="#FFCDC7"></path>
  <path d="M193.495 213.87C193.495 213.87 193.489 213.86 193.486 213.854C193.489 213.86 193.492 213.866 193.495 213.87Z" fill="#FFCDC7"></path>
  <path d="M187.052 214.006C186.993 214.144 186.953 214.235 186.938 214.27L187.047 214.015V214.01L187.052 214.006Z" fill="#FFCDC7"></path>
  <path d="M225.373 219.669H145.942C145.77 219.669 145.631 219.529 145.631 219.358C145.631 219.187 145.77 219.048 145.942 219.048H225.373C225.544 219.048 225.683 219.187 225.683 219.358C225.683 219.529 225.544 219.669 225.373 219.669Z" fill="white"></path>
  <path d="M214.706 107.385V109.635H213.391V103.251H215.881C216.361 103.251 216.781 103.338 217.146 103.514C217.511 103.69 217.79 103.939 217.985 104.261C218.18 104.584 218.278 104.952 218.278 105.365C218.278 105.991 218.065 106.483 217.636 106.845C217.208 107.206 216.615 107.387 215.857 107.387H214.704L214.706 107.385ZM214.706 106.319H215.881C216.229 106.319 216.495 106.237 216.676 106.073C216.859 105.91 216.951 105.675 216.951 105.372C216.951 105.069 216.859 104.806 216.675 104.614C216.49 104.421 216.237 104.321 215.912 104.317H214.707V106.321L214.706 106.319Z" fill="#545ED7"></path>
  <path d="M220.437 109.634H219.166V102.899H220.437V109.634Z" fill="#545ED7"></path>
  <path d="M223.664 109.721C222.967 109.721 222.401 109.507 221.965 109.081C221.528 108.655 221.309 108.086 221.309 107.376V107.253C221.309 106.777 221.4 106.351 221.585 105.976C221.769 105.6 222.031 105.311 222.367 105.106C222.705 104.904 223.09 104.802 223.523 104.802C224.171 104.802 224.683 105.006 225.055 105.416C225.427 105.825 225.614 106.405 225.614 107.157V107.675H222.592C222.633 107.984 222.756 108.233 222.963 108.421C223.168 108.607 223.43 108.701 223.745 108.701C224.233 108.701 224.614 108.524 224.889 108.172L225.511 108.868C225.322 109.137 225.064 109.347 224.74 109.497C224.416 109.647 224.055 109.722 223.662 109.722L223.664 109.721ZM223.518 105.822C223.267 105.822 223.063 105.908 222.907 106.078C222.75 106.249 222.651 106.492 222.607 106.809H224.371V106.707C224.365 106.424 224.288 106.207 224.143 106.052C223.997 105.898 223.788 105.821 223.52 105.821L223.518 105.822Z" fill="#545ED7"></path>
  <path d="M229.082 109.634C229.023 109.519 228.981 109.378 228.954 109.209C228.647 109.551 228.249 109.722 227.758 109.722C227.294 109.722 226.909 109.589 226.602 109.32C226.298 109.051 226.145 108.712 226.145 108.302C226.145 107.799 226.331 107.414 226.704 107.145C227.077 106.876 227.616 106.74 228.32 106.737H228.902V106.465C228.902 106.246 228.845 106.07 228.734 105.938C228.621 105.806 228.444 105.741 228.201 105.741C227.988 105.741 227.82 105.792 227.698 105.895C227.577 105.997 227.516 106.138 227.516 106.315H226.25C226.25 106.04 226.334 105.785 226.503 105.552C226.673 105.318 226.913 105.135 227.222 105.001C227.531 104.868 227.88 104.802 228.265 104.802C228.851 104.802 229.315 104.949 229.658 105.243C230.002 105.537 230.173 105.95 230.173 106.481V108.538C230.176 108.988 230.239 109.329 230.362 109.56V109.635H229.082V109.634ZM228.034 108.752C228.22 108.752 228.393 108.712 228.551 108.628C228.708 108.544 228.825 108.433 228.902 108.293V107.477H228.429C227.794 107.477 227.458 107.696 227.416 108.134L227.411 108.209C227.411 108.367 227.467 108.497 227.578 108.599C227.689 108.701 227.841 108.752 228.034 108.752Z" fill="#545ED7"></path>
  <path d="M233.717 108.323C233.717 108.169 233.641 108.046 233.488 107.957C233.334 107.869 233.087 107.789 232.748 107.718C231.619 107.481 231.054 107.002 231.054 106.28C231.054 105.86 231.23 105.509 231.578 105.227C231.928 104.945 232.384 104.803 232.949 104.803C233.551 104.803 234.032 104.945 234.393 105.228C234.753 105.512 234.935 105.88 234.935 106.333H233.668C233.668 106.151 233.609 106.001 233.492 105.883C233.375 105.764 233.192 105.706 232.944 105.706C232.731 105.706 232.566 105.754 232.449 105.85C232.332 105.946 232.273 106.069 232.273 106.219C232.273 106.359 232.339 106.473 232.473 106.558C232.605 106.645 232.83 106.719 233.145 106.782C233.462 106.845 233.728 106.915 233.944 106.995C234.613 107.241 234.948 107.666 234.948 108.271C234.948 108.703 234.762 109.053 234.391 109.32C234.02 109.587 233.54 109.721 232.953 109.721C232.555 109.721 232.203 109.65 231.893 109.509C231.586 109.367 231.343 109.173 231.167 108.925C230.991 108.679 230.904 108.412 230.904 108.125H232.105C232.117 108.35 232.2 108.523 232.356 108.643C232.51 108.763 232.718 108.823 232.979 108.823C233.222 108.823 233.405 108.777 233.53 108.685C233.654 108.594 233.716 108.472 233.716 108.323H233.717Z" fill="#545ED7"></path>
  <path d="M237.949 109.721C237.252 109.721 236.686 109.507 236.25 109.081C235.813 108.655 235.594 108.086 235.594 107.376V107.253C235.594 106.777 235.685 106.351 235.87 105.976C236.055 105.6 236.316 105.311 236.652 105.106C236.99 104.904 237.375 104.802 237.808 104.802C238.456 104.802 238.968 105.006 239.34 105.416C239.713 105.825 239.899 106.405 239.899 107.157V107.675H236.877C236.918 107.984 237.041 108.233 237.248 108.421C237.454 108.607 237.715 108.701 238.03 108.701C238.518 108.701 238.899 108.524 239.174 108.172L239.797 108.868C239.607 109.137 239.349 109.347 239.025 109.497C238.701 109.647 238.341 109.722 237.947 109.722L237.949 109.721ZM237.803 105.822C237.553 105.822 237.348 105.908 237.192 106.078C237.035 106.249 236.936 106.492 236.892 106.809H238.656V106.707C238.65 106.424 238.573 106.207 238.428 106.052C238.282 105.898 238.073 105.821 237.805 105.821L237.803 105.822Z" fill="#545ED7"></path>
  <path d="M240.947 111.234L240.285 110.887L240.443 110.602C240.638 110.245 240.74 109.89 240.744 109.536V108.554H241.815L241.81 109.431C241.807 109.755 241.726 110.082 241.564 110.413C241.403 110.743 241.198 111.016 240.946 111.232L240.947 111.234Z" fill="#545ED7"></path>
  <path d="M213.653 120.409V116.595H212.947V115.666H213.653V115.262C213.653 114.73 213.806 114.318 214.111 114.024C214.415 113.73 214.843 113.583 215.394 113.583C215.57 113.583 215.784 113.613 216.038 113.671L216.024 114.653C215.919 114.626 215.79 114.614 215.639 114.614C215.163 114.614 214.924 114.838 214.924 115.285V115.666H215.867V116.595H214.924V120.409H213.653Z" fill="#545ED7"></path>
  <path d="M216.516 114.437C216.516 114.248 216.579 114.09 216.706 113.969C216.834 113.845 217.006 113.784 217.226 113.784C217.445 113.784 217.614 113.845 217.743 113.969C217.873 114.092 217.937 114.248 217.937 114.437C217.937 114.626 217.873 114.788 217.742 114.91C217.613 115.033 217.44 115.094 217.227 115.094C217.014 115.094 216.843 115.033 216.712 114.91C216.583 114.787 216.517 114.629 216.517 114.437H216.516ZM217.862 120.409H216.591V115.666H217.862V120.409Z" fill="#545ED7"></path>
  <path d="M220.244 120.409H218.973V113.674H220.244V120.409Z" fill="#545ED7"></path>
  <path d="M222.625 120.409H221.354V113.674H222.625V120.409Z" fill="#545ED7"></path>
  <path d="M227.419 114.499V115.665H228.231V116.594H227.419V118.961C227.419 119.137 227.454 119.263 227.52 119.338C227.587 119.414 227.715 119.452 227.906 119.452C228.045 119.452 228.17 119.441 228.278 119.422V120.383C228.03 120.459 227.774 120.497 227.511 120.497C226.622 120.497 226.169 120.048 226.152 119.15V116.594H225.459V115.665H226.152V114.499H227.419Z" fill="#545ED7"></path>
  <path d="M230.174 116.183C230.51 115.78 230.932 115.578 231.44 115.578C232.469 115.578 232.991 116.177 233.006 117.371V120.409H231.739V117.406C231.739 117.134 231.681 116.933 231.563 116.802C231.446 116.672 231.253 116.607 230.981 116.607C230.61 116.607 230.342 116.75 230.175 117.037V120.408H228.908V113.673H230.175V116.181L230.174 116.183Z" fill="#545ED7"></path>
  <path d="M236.144 120.496C235.448 120.496 234.882 120.283 234.445 119.857C234.008 119.431 233.789 118.862 233.789 118.152V118.029C233.789 117.553 233.881 117.127 234.065 116.751C234.25 116.376 234.51 116.086 234.847 115.882C235.185 115.68 235.571 115.578 236.003 115.578C236.652 115.578 237.163 115.782 237.536 116.192C237.908 116.601 238.095 117.181 238.095 117.931V118.449H235.074C235.114 118.758 235.238 119.007 235.445 119.195C235.65 119.381 235.912 119.476 236.227 119.476C236.715 119.476 237.096 119.299 237.37 118.946L237.993 119.642C237.803 119.911 237.546 120.121 237.222 120.271C236.898 120.421 236.537 120.496 236.143 120.496H236.144ZM236 116.598C235.748 116.598 235.545 116.684 235.388 116.854C235.232 117.025 235.131 117.268 235.087 117.584H236.85V117.482C236.844 117.2 236.767 116.983 236.621 116.828C236.476 116.673 236.267 116.597 235.999 116.597L236 116.598Z" fill="#545ED7"></path>
  <path d="M241.399 120.409V116.595H240.693V115.666H241.399V115.262C241.399 114.73 241.552 114.318 241.857 114.024C242.161 113.73 242.589 113.583 243.139 113.583C243.314 113.583 243.529 113.613 243.782 113.671L243.769 114.653C243.664 114.626 243.535 114.614 243.383 114.614C242.907 114.614 242.669 114.838 242.669 115.285V115.666H243.611V116.595H242.669V120.409H241.397H241.399Z" fill="#545ED7"></path>
  <path d="M244.073 117.994C244.073 117.523 244.165 117.104 244.345 116.736C244.527 116.369 244.786 116.083 245.127 115.881C245.468 115.68 245.863 115.578 246.313 115.578C246.952 115.578 247.475 115.773 247.88 116.165C248.285 116.556 248.51 117.088 248.557 117.76L248.566 118.084C248.566 118.812 248.363 119.396 247.956 119.836C247.55 120.276 247.005 120.496 246.32 120.496C245.636 120.496 245.089 120.277 244.683 119.839C244.274 119.401 244.07 118.803 244.07 118.05V117.993L244.073 117.994ZM245.34 118.084C245.34 118.535 245.426 118.88 245.595 119.119C245.765 119.357 246.007 119.476 246.323 119.476C246.64 119.476 246.87 119.357 247.042 119.123C247.215 118.887 247.301 118.511 247.301 117.993C247.301 117.551 247.213 117.208 247.042 116.965C246.87 116.721 246.627 116.6 246.314 116.6C246.002 116.6 245.765 116.72 245.595 116.962C245.426 117.203 245.34 117.577 245.34 118.083V118.084Z" fill="#545ED7"></path>
  <path d="M252.013 116.853C251.841 116.831 251.689 116.819 251.557 116.819C251.078 116.819 250.763 116.981 250.615 117.305V120.409H249.348V115.666H250.544L250.578 116.232C250.832 115.797 251.185 115.579 251.635 115.579C251.776 115.579 251.907 115.599 252.03 115.636L252.012 116.855L252.013 116.853Z" fill="#545ED7"></path>
  <path d="M253.811 115.666L253.85 116.196C254.187 115.783 254.641 115.578 255.213 115.578C255.824 115.578 256.245 115.819 256.471 116.301C256.804 115.819 257.279 115.578 257.896 115.578C258.409 115.578 258.793 115.728 259.044 116.028C259.296 116.328 259.421 116.778 259.421 117.38V120.411H258.149V117.385C258.149 117.116 258.097 116.92 257.992 116.795C257.887 116.67 257.701 116.609 257.435 116.609C257.055 116.609 256.791 116.79 256.645 117.152L256.65 120.411H255.383V117.389C255.383 117.115 255.329 116.917 255.221 116.793C255.113 116.67 254.928 116.609 254.668 116.609C254.31 116.609 254.049 116.757 253.888 117.056V120.411H252.621V115.668H253.81L253.811 115.666Z" fill="#545ED7"></path>
  <path d="M215.486 129.465H214.296V130.719H213.922V127.882H215.68V128.188H214.297V129.16H215.487V129.467L215.486 129.465Z" fill="#7D80B5"></path>
  <path d="M217.33 130.51C217.191 130.675 216.984 130.758 216.713 130.758C216.488 130.758 216.317 130.691 216.2 130.562C216.082 130.432 216.023 130.238 216.021 129.983V128.611H216.382V129.973C216.382 130.292 216.511 130.453 216.77 130.453C217.045 130.453 217.23 130.351 217.32 130.145V128.611H217.68V130.72H217.336L217.329 130.511L217.33 130.51Z" fill="#7D80B5"></path>
  <path d="M218.62 130.718H218.26V127.725H218.62V130.718Z" fill="#7D80B5"></path>
  <path d="M219.589 130.718H219.229V127.725H219.589V130.718Z" fill="#7D80B5"></path>
  <path d="M221.495 128.61L221.507 128.874C221.668 128.671 221.878 128.571 222.137 128.571C222.583 128.571 222.808 128.821 222.811 129.324V130.717H222.451V129.323C222.451 129.171 222.415 129.058 222.348 128.985C222.28 128.911 222.174 128.875 222.029 128.875C221.912 128.875 221.81 128.907 221.722 128.968C221.633 129.03 221.564 129.112 221.515 129.215V130.717H221.154V128.608H221.495V128.61Z" fill="#7D80B5"></path>
  <path d="M224.658 130.718C224.637 130.676 224.621 130.603 224.609 130.496C224.441 130.67 224.241 130.758 224.008 130.758C223.801 130.758 223.63 130.699 223.497 130.582C223.363 130.463 223.297 130.315 223.297 130.135C223.297 129.915 223.381 129.744 223.548 129.623C223.714 129.501 223.95 129.441 224.253 129.441H224.603V129.274C224.603 129.148 224.565 129.048 224.49 128.974C224.415 128.899 224.304 128.862 224.157 128.862C224.029 128.862 223.92 128.895 223.834 128.959C223.747 129.024 223.704 129.102 223.704 129.195H223.342C223.342 129.09 223.379 128.988 223.453 128.89C223.528 128.793 223.629 128.715 223.758 128.658C223.885 128.601 224.026 128.572 224.179 128.572C224.423 128.572 224.613 128.632 224.751 128.754C224.889 128.875 224.96 129.042 224.966 129.255V130.225C224.966 130.418 224.992 130.573 225.04 130.687V130.718H224.661H224.658ZM224.059 130.444C224.172 130.444 224.28 130.414 224.381 130.357C224.483 130.298 224.556 130.222 224.601 130.129V129.696H224.319C223.878 129.696 223.657 129.825 223.657 130.084C223.657 130.198 223.695 130.285 223.771 130.349C223.846 130.412 223.944 130.445 224.061 130.445L224.059 130.444Z" fill="#7D80B5"></path>
  <path d="M225.866 128.61L225.875 128.844C226.029 128.662 226.238 128.571 226.501 128.571C226.795 128.571 226.996 128.683 227.103 128.91C227.173 128.808 227.265 128.727 227.376 128.664C227.488 128.601 227.62 128.571 227.773 128.571C228.236 128.571 228.471 128.815 228.479 129.306V130.719H228.119V129.327C228.119 129.177 228.084 129.063 228.015 128.988C227.946 128.913 227.831 128.877 227.668 128.877C227.535 128.877 227.424 128.917 227.335 128.997C227.247 129.076 227.196 129.184 227.181 129.32V130.719H226.819V129.338C226.819 129.031 226.669 128.878 226.369 128.878C226.133 128.878 225.971 128.979 225.884 129.18V130.72H225.523V128.611H225.864L225.866 128.61Z" fill="#7D80B5"></path>
  <path d="M229.898 130.758C229.612 130.758 229.379 130.664 229.2 130.475C229.022 130.288 228.932 130.037 228.932 129.722V129.656C228.932 129.447 228.972 129.26 229.052 129.096C229.131 128.932 229.244 128.803 229.386 128.71C229.531 128.617 229.685 128.571 229.853 128.571C230.128 128.571 230.34 128.661 230.493 128.841C230.644 129.021 230.721 129.281 230.721 129.617V129.767H229.292C229.296 129.974 229.358 130.142 229.474 130.271C229.589 130.399 229.738 130.463 229.916 130.463C230.044 130.463 230.152 130.438 230.239 130.385C230.328 130.333 230.406 130.264 230.472 130.178L230.692 130.349C230.515 130.621 230.251 130.756 229.898 130.756V130.758ZM229.853 128.868C229.708 128.868 229.586 128.92 229.487 129.027C229.388 129.133 229.328 129.282 229.304 129.473H230.361V129.446C230.35 129.263 230.301 129.12 230.212 129.019C230.123 128.919 230.003 128.869 229.853 128.869V128.868Z" fill="#7D80B5"></path>
  <path d="M286.053 142.456H213.455V133.518H286.053V142.456ZM213.73 142.182H285.78V133.791H213.73V142.182Z" fill="#7D80B5"></path>
  <path d="M214.297 149.706H215.642V150.013H213.922V147.176H214.297V149.708V149.706Z" fill="#7D80B5"></path>
  <path d="M215.918 148.939C215.918 148.732 215.958 148.548 216.039 148.383C216.12 148.217 216.233 148.09 216.378 148C216.524 147.91 216.689 147.866 216.874 147.866C217.16 147.866 217.393 147.965 217.57 148.165C217.747 148.363 217.836 148.629 217.836 148.957V148.983C217.836 149.189 217.797 149.372 217.717 149.535C217.638 149.699 217.527 149.825 217.38 149.917C217.234 150.008 217.066 150.053 216.877 150.053C216.59 150.053 216.359 149.954 216.182 149.754C216.005 149.556 215.916 149.292 215.916 148.965V148.939H215.918ZM216.281 148.983C216.281 149.217 216.335 149.405 216.443 149.546C216.551 149.687 216.697 149.759 216.878 149.759C217.06 149.759 217.207 149.687 217.315 149.543C217.423 149.4 217.477 149.199 217.477 148.939C217.477 148.708 217.423 148.521 217.312 148.378C217.202 148.235 217.057 148.163 216.875 148.163C216.694 148.163 216.554 148.234 216.444 148.375C216.335 148.516 216.281 148.719 216.281 148.983Z" fill="#7D80B5"></path>
  <path d="M219.135 149.757C219.264 149.757 219.376 149.718 219.472 149.64C219.568 149.562 219.621 149.465 219.631 149.349H219.972C219.966 149.469 219.924 149.585 219.847 149.694C219.771 149.804 219.669 149.89 219.54 149.956C219.412 150.02 219.276 150.053 219.133 150.053C218.846 150.053 218.618 149.957 218.449 149.766C218.279 149.574 218.193 149.313 218.193 148.98V148.92C218.193 148.716 218.231 148.533 218.306 148.372C218.381 148.213 218.489 148.088 218.63 148C218.771 147.911 218.938 147.868 219.13 147.868C219.367 147.868 219.562 147.938 219.72 148.079C219.878 148.22 219.96 148.405 219.971 148.63H219.63C219.619 148.494 219.568 148.383 219.475 148.294C219.382 148.205 219.268 148.162 219.131 148.162C218.948 148.162 218.806 148.228 218.705 148.36C218.605 148.492 218.555 148.683 218.555 148.932V148.999C218.555 149.243 218.605 149.429 218.705 149.561C218.806 149.691 218.948 149.757 219.133 149.757H219.135Z" fill="#7D80B5"></path>
  <path d="M221.679 150.013C221.658 149.971 221.642 149.897 221.628 149.791C221.46 149.965 221.261 150.052 221.028 150.052C220.821 150.052 220.65 149.993 220.516 149.876C220.382 149.757 220.316 149.609 220.316 149.429C220.316 149.21 220.4 149.039 220.567 148.917C220.734 148.795 220.969 148.735 221.271 148.735H221.622V148.569C221.622 148.443 221.585 148.342 221.508 148.268C221.433 148.193 221.322 148.156 221.175 148.156C221.046 148.156 220.938 148.189 220.852 148.253C220.765 148.318 220.722 148.396 220.722 148.489H220.36C220.36 148.384 220.397 148.282 220.473 148.184C220.548 148.087 220.648 148.009 220.776 147.952C220.903 147.895 221.044 147.866 221.198 147.866C221.441 147.866 221.631 147.926 221.768 148.048C221.906 148.169 221.977 148.336 221.981 148.549V149.519C221.981 149.712 222.007 149.867 222.056 149.981V150.013H221.678H221.679ZM221.08 149.738C221.193 149.738 221.301 149.708 221.402 149.651C221.504 149.592 221.577 149.516 221.622 149.423V148.99H221.34C220.899 148.99 220.678 149.12 220.678 149.378C220.678 149.492 220.716 149.579 220.791 149.643C220.866 149.706 220.963 149.739 221.082 149.739L221.08 149.738Z" fill="#7D80B5"></path>
  <path d="M223.039 147.393V147.904H223.432V148.183H223.039V149.492C223.039 149.576 223.057 149.639 223.092 149.682C223.126 149.724 223.186 149.745 223.27 149.745C223.312 149.745 223.369 149.738 223.441 149.721V150.013C223.347 150.038 223.255 150.052 223.165 150.052C223.003 150.052 222.883 150.004 222.8 149.906C222.718 149.808 222.677 149.67 222.677 149.492V148.184H222.293V147.905H222.677V147.395H223.037L223.039 147.393Z" fill="#7D80B5"></path>
  <path d="M223.855 147.345C223.855 147.287 223.873 147.237 223.91 147.197C223.946 147.156 223.998 147.137 224.069 147.137C224.139 147.137 224.192 147.158 224.228 147.197C224.264 147.237 224.282 147.287 224.282 147.345C224.282 147.404 224.264 147.452 224.228 147.491C224.192 147.53 224.138 147.549 224.069 147.549C224 147.549 223.946 147.53 223.91 147.491C223.873 147.452 223.855 147.402 223.855 147.345ZM224.246 150.013H223.886V147.904H224.246V150.013Z" fill="#7D80B5"></path>
  <path d="M224.726 148.939C224.726 148.732 224.767 148.548 224.848 148.383C224.929 148.217 225.041 148.09 225.187 148C225.333 147.91 225.498 147.866 225.682 147.866C225.969 147.866 226.202 147.965 226.379 148.165C226.556 148.363 226.644 148.629 226.644 148.957V148.983C226.644 149.189 226.605 149.372 226.526 149.535C226.446 149.699 226.335 149.825 226.188 149.917C226.043 150.008 225.874 150.053 225.685 150.053C225.399 150.053 225.167 149.954 224.99 149.754C224.813 149.556 224.725 149.292 224.725 148.965V148.939H224.726ZM225.089 148.983C225.089 149.217 225.143 149.405 225.251 149.546C225.36 149.687 225.505 149.759 225.687 149.759C225.868 149.759 226.015 149.687 226.124 149.543C226.232 149.4 226.286 149.199 226.286 148.939C226.286 148.708 226.232 148.521 226.121 148.378C226.011 148.235 225.865 148.163 225.684 148.163C225.502 148.163 225.363 148.234 225.253 148.375C225.143 148.516 225.089 148.719 225.089 148.983Z" fill="#7D80B5"></path>
  <path d="M227.438 147.905L227.45 148.169C227.611 147.967 227.821 147.866 228.081 147.866C228.527 147.866 228.752 148.117 228.755 148.62V150.013H228.395V148.618C228.395 148.465 228.359 148.354 228.291 148.28C228.222 148.208 228.117 148.171 227.973 148.171C227.856 148.171 227.754 148.202 227.665 148.264C227.576 148.326 227.507 148.408 227.458 148.51V150.013H227.098V147.904H227.438V147.905Z" fill="#7D80B5"></path>
  <path d="M286.053 161.751H213.455V152.812H286.053V161.751ZM213.73 161.476H285.78V153.085H213.73V161.476Z" fill="#7D80B5"></path>
  <path d="M214.296 169.065V170.176H213.922V167.339H214.968C215.279 167.339 215.522 167.418 215.698 167.578C215.873 167.737 215.962 167.945 215.962 168.206C215.962 168.483 215.876 168.694 215.704 168.843C215.531 168.991 215.285 169.067 214.964 169.067H214.296V169.065ZM214.296 168.759H214.968C215.168 168.759 215.321 168.711 215.427 168.618C215.534 168.523 215.587 168.387 215.587 168.208C215.587 168.029 215.534 167.903 215.427 167.803C215.321 167.701 215.175 167.648 214.989 167.645H214.296V168.76V168.759Z" fill="#7D80B5"></path>
  <path d="M216.745 168.322C216.904 168.127 217.112 168.028 217.367 168.028C217.813 168.028 218.038 168.279 218.041 168.781V170.174H217.681V168.78C217.681 168.628 217.645 168.516 217.576 168.442C217.509 168.369 217.402 168.333 217.258 168.333C217.141 168.333 217.039 168.364 216.95 168.426C216.862 168.487 216.793 168.57 216.743 168.672V170.174H216.383V167.181H216.743V168.321L216.745 168.322Z" fill="#7D80B5"></path>
  <path d="M218.486 169.103C218.486 168.895 218.526 168.711 218.607 168.546C218.689 168.381 218.801 168.253 218.947 168.163C219.091 168.073 219.256 168.029 219.442 168.029C219.729 168.029 219.961 168.128 220.138 168.328C220.316 168.526 220.404 168.792 220.404 169.121V169.146C220.404 169.352 220.365 169.535 220.286 169.698C220.208 169.862 220.095 169.988 219.949 170.08C219.804 170.171 219.636 170.216 219.445 170.216C219.16 170.216 218.929 170.117 218.75 169.918C218.573 169.719 218.484 169.455 218.484 169.128V169.103H218.486ZM218.848 169.146C218.848 169.38 218.902 169.568 219.011 169.709C219.119 169.85 219.265 169.922 219.447 169.922C219.628 169.922 219.775 169.85 219.883 169.706C219.991 169.562 220.045 169.362 220.045 169.103C220.045 168.871 219.991 168.684 219.882 168.541C219.772 168.397 219.627 168.327 219.444 168.327C219.26 168.327 219.122 168.397 219.013 168.538C218.903 168.679 218.849 168.882 218.849 169.146H218.848Z" fill="#7D80B5"></path>
  <path d="M221.198 168.068L221.21 168.333C221.372 168.13 221.582 168.029 221.842 168.029C222.288 168.029 222.513 168.28 222.516 168.783V170.176H222.156V168.781C222.156 168.63 222.12 168.517 222.051 168.444C221.983 168.37 221.877 168.334 221.733 168.334C221.615 168.334 221.513 168.366 221.425 168.427C221.336 168.489 221.267 168.571 221.218 168.673V170.176H220.857V168.067H221.198V168.068Z" fill="#7D80B5"></path>
  <path d="M223.933 170.215C223.647 170.215 223.414 170.122 223.235 169.933C223.057 169.745 222.967 169.494 222.967 169.179V169.113C222.967 168.904 223.007 168.717 223.087 168.553C223.166 168.39 223.279 168.26 223.422 168.167C223.566 168.074 223.72 168.028 223.888 168.028C224.163 168.028 224.375 168.118 224.528 168.298C224.679 168.478 224.756 168.738 224.756 169.074V169.224H223.327C223.332 169.431 223.393 169.599 223.509 169.728C223.624 169.856 223.773 169.921 223.951 169.921C224.079 169.921 224.187 169.895 224.274 169.843C224.363 169.79 224.441 169.721 224.507 169.635L224.727 169.807C224.55 170.078 224.286 170.213 223.933 170.213V170.215ZM223.888 168.325C223.743 168.325 223.621 168.378 223.522 168.484C223.423 168.591 223.363 168.739 223.339 168.93H224.396V168.903C224.385 168.72 224.336 168.577 224.249 168.477C224.16 168.376 224.04 168.327 223.89 168.327L223.888 168.325Z" fill="#7D80B5"></path>
  <path d="M226.503 168.068L226.515 168.333C226.677 168.13 226.887 168.029 227.147 168.029C227.593 168.029 227.818 168.28 227.821 168.783V170.176H227.46V168.781C227.46 168.63 227.424 168.517 227.355 168.444C227.288 168.37 227.181 168.334 227.037 168.334C226.92 168.334 226.818 168.366 226.729 168.427C226.641 168.489 226.572 168.571 226.522 168.673V170.176H226.162V168.067H226.503V168.068Z" fill="#7D80B5"></path>
  <path d="M229.666 169.967C229.525 170.132 229.319 170.215 229.047 170.215C228.822 170.215 228.651 170.149 228.534 170.02C228.417 169.889 228.357 169.695 228.355 169.44V168.068H228.716V169.43C228.716 169.75 228.845 169.91 229.106 169.91C229.381 169.91 229.564 169.808 229.655 169.602V168.068H230.016V170.177H229.673L229.666 169.969V169.967Z" fill="#7D80B5"></path>
  <path d="M230.902 168.068L230.911 168.302C231.066 168.121 231.275 168.029 231.537 168.029C231.833 168.029 232.033 168.142 232.139 168.369C232.21 168.266 232.301 168.185 232.412 168.122C232.525 168.059 232.659 168.029 232.81 168.029C233.272 168.029 233.508 168.274 233.516 168.765V170.177H233.155V168.786C233.155 168.636 233.121 168.522 233.052 168.447C232.983 168.372 232.867 168.336 232.705 168.336C232.571 168.336 232.46 168.376 232.372 168.456C232.283 168.535 232.232 168.643 232.217 168.778V170.177H231.854V168.796C231.854 168.49 231.704 168.337 231.404 168.337C231.167 168.337 231.006 168.438 230.919 168.639V170.179H230.559V168.07H230.899L230.902 168.068Z" fill="#7D80B5"></path>
  <path d="M235.847 169.145C235.847 169.467 235.772 169.726 235.625 169.921C235.476 170.116 235.278 170.215 235.029 170.215C234.763 170.215 234.558 170.12 234.412 169.933L234.394 170.176H234.062V167.183H234.423V168.3C234.568 168.119 234.769 168.029 235.025 168.029C235.28 168.029 235.482 168.126 235.628 168.319C235.774 168.513 235.847 168.778 235.847 169.115V169.146V169.145ZM235.487 169.104C235.487 168.858 235.439 168.669 235.344 168.535C235.25 168.402 235.113 168.334 234.935 168.334C234.696 168.334 234.526 168.445 234.421 168.666V169.578C234.532 169.799 234.703 169.91 234.938 169.91C235.11 169.91 235.245 169.843 235.34 169.709C235.436 169.575 235.484 169.374 235.484 169.106L235.487 169.104Z" fill="#7D80B5"></path>
  <path d="M237.176 170.215C236.889 170.215 236.656 170.122 236.478 169.933C236.299 169.745 236.209 169.494 236.209 169.179V169.113C236.209 168.904 236.25 168.717 236.329 168.553C236.409 168.39 236.521 168.26 236.664 168.167C236.808 168.074 236.962 168.028 237.131 168.028C237.405 168.028 237.617 168.118 237.77 168.298C237.922 168.478 237.998 168.738 237.998 169.074V169.224H236.569C236.574 169.431 236.635 169.599 236.751 169.728C236.866 169.856 237.015 169.921 237.194 169.921C237.321 169.921 237.429 169.895 237.516 169.843C237.605 169.79 237.683 169.721 237.749 169.635L237.97 169.807C237.793 170.078 237.528 170.213 237.176 170.213V170.215ZM237.131 168.325C236.985 168.325 236.863 168.378 236.764 168.484C236.665 168.591 236.605 168.739 236.581 168.93H237.638V168.903C237.627 168.72 237.578 168.577 237.489 168.477C237.401 168.376 237.281 168.327 237.131 168.327V168.325Z" fill="#7D80B5"></path>
  <path d="M239.435 168.391C239.381 168.382 239.321 168.378 239.258 168.378C239.021 168.378 238.862 168.478 238.776 168.679V170.176H238.416V168.067H238.766L238.772 168.31C238.89 168.122 239.057 168.028 239.275 168.028C239.345 168.028 239.398 168.037 239.435 168.055V168.39V168.391Z" fill="#7D80B5"></path>
  <path d="M286.053 181.914H213.455V172.975H286.053V181.914ZM213.73 181.639H285.78V173.248H213.73V181.639Z" fill="#7D80B5"></path>
  <path d="M284.692 198.152H251.773C251.288 198.152 250.895 198.545 250.895 199.03V207.676C250.895 208.161 251.288 208.554 251.773 208.554H284.692C285.176 208.554 285.57 208.161 285.57 207.676V199.03C285.57 198.545 285.176 198.152 284.692 198.152Z" fill="#FF7867"></path>
  <path d="M261.279 204.585H260.738L259.346 202.37V204.585H258.803V201.463H259.346L260.742 203.686V201.463H261.281V204.585H261.279Z" fill="white"></path>
  <path d="M262.892 204.629C262.562 204.629 262.293 204.525 262.089 204.317C261.883 204.109 261.781 203.832 261.781 203.487V203.422C261.781 203.189 261.826 202.984 261.915 202.801C262.003 202.619 262.129 202.476 262.292 202.376C262.454 202.274 262.632 202.223 262.832 202.223C263.149 202.223 263.392 202.323 263.564 202.526C263.737 202.727 263.823 203.012 263.823 203.381V203.592H262.307C262.323 203.782 262.386 203.935 262.499 204.046C262.611 204.157 262.752 204.213 262.922 204.213C263.161 204.213 263.354 204.117 263.504 203.923L263.785 204.192C263.692 204.33 263.569 204.438 263.413 204.515C263.258 204.591 263.084 204.629 262.891 204.629H262.892ZM262.829 202.641C262.686 202.641 262.571 202.691 262.482 202.792C262.394 202.892 262.338 203.03 262.314 203.21H263.308V203.171C263.296 202.997 263.249 202.865 263.168 202.775C263.086 202.686 262.973 202.641 262.829 202.641Z" fill="white"></path>
  <path d="M265.06 203.029L265.501 202.265H266.081L265.371 203.407L266.105 204.584H265.53L265.068 203.79L264.607 204.584H264.027L264.76 203.407L264.053 202.265H264.628L265.06 203.029Z" fill="white"></path>
  <path d="M267.089 201.702V202.266H267.498V202.652H267.089V203.947C267.089 204.036 267.107 204.1 267.141 204.139C267.176 204.178 267.239 204.198 267.329 204.198C267.389 204.198 267.449 204.19 267.511 204.177V204.581C267.392 204.614 267.278 204.63 267.167 204.63C266.766 204.63 266.566 204.41 266.566 203.968V202.653H266.184V202.268H266.566V201.703H267.087L267.089 201.702Z" fill="white"></path>
  <path d="M270.29 203.955C270.29 203.862 270.252 203.791 270.176 203.743C270.099 203.695 269.973 203.652 269.796 203.614C269.619 203.577 269.47 203.53 269.352 203.473C269.092 203.347 268.961 203.165 268.961 202.927C268.961 202.727 269.045 202.559 269.213 202.425C269.382 202.292 269.596 202.224 269.857 202.224C270.135 202.224 270.359 202.293 270.53 202.43C270.701 202.566 270.787 202.745 270.787 202.964H270.266C270.266 202.864 270.228 202.781 270.155 202.713C270.081 202.647 269.982 202.613 269.859 202.613C269.745 202.613 269.652 202.64 269.58 202.692C269.508 202.745 269.472 202.816 269.472 202.904C269.472 202.984 269.506 203.047 269.572 203.09C269.64 203.134 269.775 203.179 269.979 203.224C270.183 203.269 270.344 203.323 270.461 203.384C270.576 203.446 270.663 203.521 270.721 203.608C270.778 203.695 270.805 203.802 270.805 203.926C270.805 204.135 270.718 204.305 270.545 204.434C270.372 204.563 270.146 204.627 269.865 204.627C269.674 204.627 269.506 204.593 269.358 204.525C269.209 204.456 269.093 204.362 269.009 204.241C268.927 204.121 268.885 203.992 268.885 203.853H269.391C269.398 203.976 269.445 204.07 269.53 204.136C269.616 204.202 269.73 204.235 269.871 204.235C270.012 204.235 270.113 204.21 270.185 204.157C270.255 204.105 270.291 204.037 270.291 203.953L270.29 203.955Z" fill="white"></path>
  <path d="M271.909 201.702V202.266H272.319V202.652H271.909V203.947C271.909 204.036 271.927 204.1 271.962 204.139C271.996 204.178 272.059 204.198 272.149 204.198C272.209 204.198 272.269 204.19 272.331 204.177V204.581C272.212 204.614 272.098 204.63 271.987 204.63C271.586 204.63 271.387 204.41 271.387 203.968V202.653H271.004V202.268H271.387V201.703H271.908L271.909 201.702Z" fill="white"></path>
  <path d="M273.74 204.629C273.409 204.629 273.141 204.525 272.937 204.317C272.731 204.109 272.629 203.832 272.629 203.487V203.422C272.629 203.189 272.674 202.984 272.764 202.801C272.853 202.619 272.979 202.476 273.141 202.376C273.303 202.274 273.481 202.223 273.681 202.223C273.998 202.223 274.241 202.323 274.414 202.526C274.586 202.727 274.672 203.012 274.672 203.381V203.592H273.156C273.172 203.782 273.235 203.935 273.348 204.046C273.46 204.157 273.602 204.213 273.771 204.213C274.01 204.213 274.203 204.117 274.354 203.923L274.634 204.192C274.541 204.33 274.418 204.438 274.262 204.515C274.107 204.591 273.933 204.629 273.74 204.629ZM273.677 202.641C273.534 202.641 273.418 202.691 273.331 202.792C273.243 202.892 273.187 203.03 273.163 203.21H274.157V203.171C274.145 202.997 274.098 202.865 274.017 202.775C273.935 202.686 273.822 202.641 273.678 202.641H273.677Z" fill="white"></path>
  <path d="M277.105 203.449C277.105 203.808 277.024 204.094 276.86 204.308C276.696 204.521 276.479 204.629 276.204 204.629C275.949 204.629 275.746 204.545 275.593 204.378V205.478H275.072V202.266H275.553L275.574 202.502C275.727 202.316 275.935 202.223 276.198 202.223C276.48 202.223 276.702 202.328 276.864 202.539C277.025 202.751 277.106 203.044 277.106 203.417V203.449H277.105ZM276.585 203.404C276.585 203.173 276.539 202.99 276.447 202.853C276.354 202.716 276.224 202.649 276.051 202.649C275.838 202.649 275.685 202.738 275.592 202.913V203.943C275.686 204.123 275.841 204.213 276.055 204.213C276.222 204.213 276.351 204.145 276.444 204.013C276.537 203.88 276.585 203.677 276.585 203.405V203.404Z" fill="white"></path>
  <path d="M222.432 191.986H222.059V189.149H222.432V191.986Z" fill="#7D80B5"></path>
  <path d="M225.348 191.986C225.327 191.944 225.31 191.87 225.298 191.763C225.13 191.938 224.93 192.025 224.698 192.025C224.491 192.025 224.32 191.966 224.186 191.849C224.052 191.73 223.986 191.582 223.986 191.402C223.986 191.183 224.07 191.011 224.237 190.89C224.404 190.768 224.639 190.708 224.942 190.708H225.292V190.542C225.292 190.416 225.255 190.315 225.18 190.241C225.105 190.166 224.994 190.129 224.846 190.129C224.719 190.129 224.609 190.162 224.524 190.226C224.437 190.291 224.393 190.37 224.393 190.462H224.031C224.031 190.357 224.069 190.255 224.142 190.157C224.217 190.06 224.318 189.982 224.447 189.925C224.575 189.868 224.716 189.839 224.869 189.839C225.112 189.839 225.303 189.899 225.439 190.021C225.577 190.142 225.648 190.309 225.654 190.522V191.492C225.654 191.685 225.679 191.84 225.728 191.954V191.986H225.349H225.348ZM224.749 191.711C224.861 191.711 224.97 191.681 225.07 191.624C225.172 191.565 225.246 191.489 225.291 191.396V190.963H225.009C224.567 190.963 224.347 191.092 224.347 191.351C224.347 191.465 224.384 191.552 224.461 191.616C224.536 191.679 224.633 191.712 224.75 191.712L224.749 191.711Z" fill="#7D80B5"></path>
  <path d="M226.131 190.914C226.131 190.585 226.207 190.324 226.359 190.129C226.511 189.935 226.712 189.838 226.964 189.838C227.216 189.838 227.422 189.929 227.566 190.111L227.584 189.877H227.913V191.935C227.913 192.208 227.832 192.422 227.669 192.58C227.509 192.738 227.291 192.816 227.018 192.816C226.866 192.816 226.718 192.783 226.572 192.718C226.427 192.654 226.315 192.565 226.239 192.451L226.427 192.235C226.581 192.425 226.77 192.521 226.992 192.521C227.168 192.521 227.305 192.472 227.402 192.373C227.5 192.274 227.549 192.136 227.549 191.956V191.774C227.405 191.941 227.209 192.023 226.959 192.023C226.71 192.023 226.512 191.924 226.361 191.724C226.207 191.526 226.131 191.255 226.131 190.912V190.914ZM226.494 190.954C226.494 191.193 226.542 191.379 226.64 191.514C226.737 191.651 226.874 191.718 227.049 191.718C227.276 191.718 227.443 191.615 227.549 191.409V190.447C227.438 190.246 227.273 190.145 227.052 190.145C226.877 190.145 226.74 190.213 226.641 190.349C226.542 190.486 226.494 190.689 226.494 190.956V190.954Z" fill="#7D80B5"></path>
  <path d="M229.476 190.201C229.422 190.192 229.362 190.187 229.299 190.187C229.062 190.187 228.903 190.288 228.817 190.489V191.986H228.457V189.877H228.807L228.813 190.12C228.931 189.932 229.098 189.838 229.316 189.838C229.386 189.838 229.439 189.847 229.476 189.865V190.199V190.201Z" fill="#7D80B5"></path>
  <path d="M230.644 192.025C230.358 192.025 230.125 191.932 229.946 191.742C229.768 191.555 229.678 191.304 229.678 190.989V190.923C229.678 190.714 229.718 190.527 229.798 190.363C229.877 190.199 229.99 190.07 230.133 189.977C230.277 189.884 230.431 189.838 230.599 189.838C230.874 189.838 231.086 189.928 231.239 190.108C231.39 190.288 231.467 190.548 231.467 190.884V191.034H230.038C230.042 191.241 230.104 191.409 230.22 191.538C230.335 191.666 230.484 191.73 230.662 191.73C230.79 191.73 230.898 191.705 230.985 191.652C231.074 191.6 231.152 191.531 231.218 191.445L231.438 191.616C231.261 191.888 230.997 192.023 230.644 192.023V192.025ZM230.599 190.135C230.454 190.135 230.332 190.187 230.233 190.294C230.134 190.401 230.074 190.549 230.05 190.74H231.107V190.713C231.096 190.53 231.047 190.387 230.96 190.286C230.871 190.186 230.751 190.136 230.601 190.136L230.599 190.135Z" fill="#7D80B5"></path>
  <path d="M232.76 192.025C232.474 192.025 232.242 191.932 232.062 191.742C231.882 191.555 231.793 191.304 231.793 190.989V190.923C231.793 190.714 231.834 190.527 231.913 190.363C231.993 190.199 232.104 190.07 232.248 189.977C232.392 189.884 232.546 189.838 232.715 189.838C232.988 189.838 233.201 189.928 233.354 190.108C233.507 190.288 233.582 190.548 233.582 190.884V191.034H232.153C232.158 191.241 232.219 191.409 232.335 191.538C232.45 191.666 232.599 191.73 232.779 191.73C232.907 191.73 233.013 191.705 233.102 191.652C233.19 191.6 233.267 191.531 233.335 191.445L233.555 191.616C233.378 191.888 233.114 192.023 232.76 192.023V192.025ZM232.715 190.135C232.569 190.135 232.446 190.187 232.348 190.294C232.251 190.401 232.189 190.549 232.165 190.74H233.22V190.713C233.21 190.53 233.162 190.387 233.073 190.286C232.985 190.186 232.866 190.136 232.715 190.136V190.135Z" fill="#7D80B5"></path>
  <path d="M235.475 189.366V189.877H235.868V190.156H235.475V191.465C235.475 191.549 235.493 191.612 235.527 191.656C235.562 191.698 235.622 191.719 235.706 191.719C235.748 191.719 235.805 191.711 235.877 191.695V191.986C235.782 192.011 235.691 192.025 235.601 192.025C235.438 192.025 235.318 191.977 235.236 191.879C235.153 191.782 235.113 191.644 235.113 191.465V190.157H234.729V189.878H235.113V189.368H235.473L235.475 189.366Z" fill="#7D80B5"></path>
  <path d="M236.156 190.911C236.156 190.704 236.196 190.519 236.277 190.354C236.358 190.189 236.471 190.061 236.617 189.971C236.762 189.881 236.927 189.836 237.112 189.836C237.399 189.836 237.631 189.935 237.808 190.135C237.986 190.333 238.074 190.599 238.074 190.927V190.953C238.074 191.159 238.035 191.342 237.956 191.505C237.876 191.669 237.765 191.795 237.618 191.887C237.472 191.978 237.304 192.023 237.115 192.023C236.828 192.023 236.597 191.924 236.42 191.724C236.243 191.526 236.154 191.262 236.154 190.935V190.909L236.156 190.911ZM236.519 190.954C236.519 191.189 236.573 191.376 236.681 191.517C236.789 191.658 236.935 191.73 237.116 191.73C237.298 191.73 237.445 191.658 237.553 191.514C237.661 191.372 237.715 191.171 237.715 190.911C237.715 190.68 237.661 190.492 237.55 190.35C237.441 190.207 237.295 190.135 237.113 190.135C236.932 190.135 236.792 190.205 236.683 190.347C236.573 190.488 236.519 190.69 236.519 190.954Z" fill="#7D80B5"></path>
  <path d="M240.004 189.366V189.877H240.398V190.156H240.004V191.465C240.004 191.549 240.022 191.612 240.057 191.656C240.091 191.698 240.151 191.719 240.237 191.719C240.277 191.719 240.336 191.711 240.408 191.695V191.986C240.313 192.011 240.22 192.025 240.13 192.025C239.97 192.025 239.848 191.977 239.767 191.879C239.685 191.782 239.644 191.644 239.644 191.465V190.157H239.26V189.878H239.644V189.368H240.004V189.366Z" fill="#7D80B5"></path>
  <path d="M241.18 190.132C241.339 189.937 241.548 189.838 241.803 189.838C242.249 189.838 242.474 190.088 242.477 190.591V191.984H242.117V190.59C242.117 190.437 242.081 190.326 242.012 190.252C241.944 190.179 241.838 190.142 241.693 190.142C241.576 190.142 241.474 190.174 241.386 190.236C241.297 190.297 241.228 190.38 241.179 190.482V191.984H240.818V188.991H241.179V190.13L241.18 190.132Z" fill="#7D80B5"></path>
  <path d="M243.892 192.025C243.606 192.025 243.375 191.932 243.194 191.742C243.016 191.555 242.926 191.304 242.926 190.989V190.923C242.926 190.714 242.966 190.527 243.046 190.363C243.125 190.199 243.238 190.07 243.381 189.977C243.525 189.884 243.679 189.838 243.847 189.838C244.122 189.838 244.334 189.928 244.487 190.108C244.638 190.288 244.715 190.548 244.715 190.884V191.034H243.286C243.291 191.241 243.352 191.409 243.468 191.538C243.583 191.666 243.732 191.73 243.91 191.73C244.038 191.73 244.146 191.705 244.233 191.652C244.322 191.6 244.4 191.531 244.466 191.445L244.686 191.616C244.509 191.888 244.245 192.023 243.892 192.023V192.025ZM243.847 190.135C243.702 190.135 243.58 190.187 243.481 190.294C243.382 190.401 243.322 190.549 243.298 190.74H244.355V190.713C244.344 190.53 244.295 190.387 244.206 190.286C244.118 190.186 243.998 190.136 243.847 190.136V190.135Z" fill="#7D80B5"></path>
  <path d="M248.058 189.455H247.145V191.986H246.773V189.455H245.863V189.149H248.058V189.455Z" fill="#7D80B5"></path>
  <path d="M249.105 192.025C248.82 192.025 248.587 191.932 248.407 191.742C248.227 191.555 248.139 191.304 248.139 190.989V190.923C248.139 190.714 248.179 190.527 248.259 190.363C248.338 190.199 248.449 190.07 248.593 189.977C248.738 189.884 248.892 189.838 249.06 189.838C249.333 189.838 249.547 189.928 249.7 190.108C249.853 190.288 249.928 190.548 249.928 190.884V191.034H248.499C248.503 191.241 248.565 191.409 248.681 191.538C248.796 191.666 248.945 191.73 249.123 191.73C249.251 191.73 249.357 191.705 249.446 191.652C249.535 191.6 249.611 191.531 249.679 191.445L249.899 191.616C249.722 191.888 249.458 192.023 249.104 192.023L249.105 192.025ZM249.06 190.135C248.915 190.135 248.792 190.187 248.694 190.294C248.596 190.401 248.535 190.549 248.511 190.74H249.566V190.713C249.556 190.53 249.508 190.387 249.418 190.286C249.329 190.186 249.21 190.136 249.059 190.136L249.06 190.135Z" fill="#7D80B5"></path>
  <path d="M251.363 190.201C251.307 190.192 251.249 190.187 251.186 190.187C250.95 190.187 250.79 190.288 250.704 190.489V191.986H250.344V189.877H250.695L250.701 190.12C250.82 189.932 250.986 189.838 251.204 189.838C251.274 189.838 251.327 189.847 251.363 189.865V190.199V190.201Z" fill="#7D80B5"></path>
  <path d="M252.034 189.877L252.043 190.111C252.197 189.929 252.406 189.838 252.669 189.838C252.963 189.838 253.164 189.95 253.27 190.177C253.341 190.075 253.433 189.994 253.544 189.931C253.656 189.868 253.788 189.838 253.941 189.838C254.404 189.838 254.639 190.082 254.647 190.573V191.986H254.287V190.594C254.287 190.444 254.252 190.33 254.183 190.255C254.114 190.18 253.998 190.144 253.836 190.144C253.703 190.144 253.592 190.184 253.503 190.264C253.415 190.343 253.364 190.452 253.349 190.587V191.986H252.987V190.605C252.987 190.298 252.837 190.145 252.536 190.145C252.299 190.145 252.139 190.246 252.052 190.447V191.987H251.691V189.878H252.032L252.034 189.877Z" fill="#7D80B5"></path>
  <path d="M256.42 191.426C256.42 191.328 256.384 191.253 256.309 191.199C256.236 191.145 256.108 191.098 255.925 191.059C255.743 191.02 255.598 190.974 255.49 190.918C255.383 190.864 255.304 190.798 255.253 190.723C255.202 190.648 255.176 190.558 255.176 190.455C255.176 190.282 255.25 190.136 255.395 190.016C255.541 189.898 255.728 189.838 255.955 189.838C256.194 189.838 256.387 189.899 256.536 190.022C256.685 190.145 256.76 190.303 256.76 190.495H256.398C256.398 190.396 256.356 190.31 256.272 190.24C256.188 190.168 256.083 190.133 255.955 190.133C255.827 190.133 255.721 190.162 255.647 190.219C255.574 190.276 255.536 190.351 255.536 190.443C255.536 190.53 255.571 190.594 255.64 190.639C255.709 190.684 255.833 190.726 256.014 190.767C256.194 190.807 256.339 190.855 256.45 190.911C256.561 190.966 256.646 191.034 256.698 191.114C256.752 191.192 256.779 191.288 256.779 191.4C256.779 191.589 256.704 191.739 256.554 191.854C256.404 191.968 256.207 192.025 255.967 192.025C255.799 192.025 255.649 191.995 255.52 191.935C255.389 191.875 255.289 191.79 255.215 191.684C255.141 191.577 255.105 191.46 255.105 191.336H255.466C255.472 191.456 255.52 191.552 255.611 191.622C255.701 191.693 255.82 191.729 255.969 191.729C256.105 191.729 256.215 191.702 256.297 191.646C256.38 191.591 256.422 191.517 256.422 191.426H256.42Z" fill="#7D80B5"></path>
  <path d="M258.162 191.223C258.162 191.087 258.2 190.962 258.276 190.846C258.351 190.732 258.497 190.599 258.711 190.447C258.585 190.294 258.501 190.169 258.458 190.076C258.414 189.983 258.393 189.89 258.393 189.799C258.393 189.582 258.456 189.414 258.584 189.291C258.711 189.17 258.884 189.108 259.102 189.108C259.297 189.108 259.457 189.165 259.585 189.279C259.713 189.393 259.776 189.536 259.776 189.71C259.776 189.824 259.747 189.931 259.689 190.027C259.632 190.123 259.53 190.225 259.385 190.331L259.177 190.486L259.809 191.24C259.897 191.071 259.941 190.884 259.941 190.677H260.267C260.267 191.008 260.187 191.282 260.028 191.501L260.433 191.986H260.001L259.812 191.762C259.716 191.848 259.603 191.914 259.474 191.957C259.345 192.002 259.213 192.025 259.079 192.025C258.803 192.025 258.581 191.951 258.413 191.804C258.245 191.657 258.162 191.463 258.162 191.223ZM259.079 191.73C259.27 191.73 259.445 191.657 259.603 191.511L258.911 190.683L258.847 190.729C258.629 190.888 258.521 191.053 258.521 191.223C258.521 191.376 258.57 191.499 258.669 191.591C258.77 191.684 258.905 191.73 259.078 191.73H259.079ZM258.754 189.788C258.754 189.913 258.83 190.069 258.983 190.256L259.213 190.094C259.301 190.033 259.361 189.973 259.394 189.916C259.427 189.859 259.444 189.791 259.444 189.71C259.444 189.623 259.411 189.551 259.346 189.492C259.282 189.434 259.199 189.405 259.1 189.405C258.994 189.405 258.91 189.441 258.847 189.513C258.784 189.585 258.754 189.677 258.754 189.787V189.788Z" fill="#7D80B5"></path>
  <path d="M262.137 190.875V191.986H261.764V189.149H262.81C263.121 189.149 263.364 189.228 263.539 189.387C263.715 189.546 263.804 189.755 263.804 190.016C263.804 190.291 263.716 190.504 263.545 190.653C263.373 190.801 263.127 190.876 262.805 190.876H262.136L262.137 190.875ZM262.137 190.569H262.81C263.01 190.569 263.163 190.521 263.269 190.428C263.376 190.333 263.428 190.196 263.428 190.018C263.428 189.839 263.374 189.713 263.269 189.613C263.163 189.51 263.017 189.458 262.831 189.455H262.137V190.57V190.569Z" fill="#7D80B5"></path>
  <path d="M265.244 190.201C265.19 190.192 265.13 190.187 265.067 190.187C264.83 190.187 264.67 190.288 264.585 190.489V191.986H264.225V189.877H264.574L264.58 190.12C264.699 189.932 264.866 189.838 265.083 189.838C265.154 189.838 265.206 189.847 265.244 189.865V190.199V190.201Z" fill="#7D80B5"></path>
  <path d="M265.576 189.318C265.576 189.26 265.594 189.21 265.63 189.17C265.666 189.129 265.719 189.11 265.789 189.11C265.86 189.11 265.912 189.131 265.948 189.17C265.984 189.21 266.002 189.26 266.002 189.318C266.002 189.377 265.984 189.425 265.948 189.464C265.912 189.503 265.858 189.522 265.789 189.522C265.72 189.522 265.666 189.503 265.63 189.464C265.594 189.425 265.576 189.375 265.576 189.318ZM265.966 191.986H265.606V189.877H265.966V191.986Z" fill="#7D80B5"></path>
  <path d="M267.238 191.496L267.76 189.877H268.128L267.373 191.986H267.098L266.334 189.877H266.703L267.239 191.496H267.238Z" fill="#7D80B5"></path>
  <path d="M269.75 191.986C269.729 191.944 269.712 191.87 269.699 191.763C269.53 191.938 269.331 192.025 269.098 192.025C268.891 192.025 268.72 191.966 268.586 191.849C268.453 191.73 268.387 191.582 268.387 191.402C268.387 191.183 268.471 191.011 268.637 190.89C268.804 190.768 269.04 190.708 269.341 190.708H269.693V190.542C269.693 190.416 269.655 190.315 269.579 190.241C269.503 190.166 269.392 190.129 269.245 190.129C269.116 190.129 269.008 190.162 268.923 190.226C268.836 190.291 268.792 190.37 268.792 190.462H268.43C268.43 190.357 268.468 190.255 268.543 190.157C268.618 190.06 268.718 189.982 268.846 189.925C268.974 189.868 269.115 189.839 269.268 189.839C269.511 189.839 269.702 189.899 269.838 190.021C269.976 190.142 270.047 190.309 270.051 190.522V191.492C270.051 191.685 270.077 191.84 270.126 191.954V191.986H269.748H269.75ZM269.151 191.711C269.263 191.711 269.371 191.681 269.472 191.624C269.574 191.565 269.648 191.489 269.693 191.396V190.963H269.41C268.969 190.963 268.748 191.092 268.748 191.351C268.748 191.465 268.786 191.552 268.861 191.616C268.936 191.679 269.034 191.712 269.152 191.712L269.151 191.711Z" fill="#7D80B5"></path>
  <path d="M271.463 191.73C271.592 191.73 271.704 191.691 271.8 191.613C271.896 191.535 271.949 191.438 271.959 191.322H272.3C272.294 191.442 272.252 191.558 272.176 191.667C272.099 191.777 271.997 191.862 271.868 191.929C271.74 191.993 271.604 192.026 271.461 192.026C271.174 192.026 270.946 191.93 270.777 191.739C270.607 191.547 270.521 191.286 270.521 190.953V190.893C270.521 190.689 270.559 190.506 270.634 190.345C270.709 190.186 270.817 190.061 270.958 189.973C271.099 189.884 271.266 189.841 271.458 189.841C271.695 189.841 271.89 189.911 272.048 190.052C272.206 190.193 272.288 190.378 272.299 190.603H271.958C271.947 190.467 271.896 190.355 271.803 190.267C271.71 190.178 271.596 190.135 271.46 190.135C271.276 190.135 271.134 190.201 271.033 190.333C270.933 190.465 270.883 190.656 270.883 190.905V190.972C270.883 191.216 270.933 191.402 271.033 191.534C271.134 191.664 271.276 191.73 271.461 191.73H271.463Z" fill="#7D80B5"></path>
  <path d="M273.396 191.457L273.887 189.877H274.273L273.425 192.311C273.294 192.661 273.086 192.837 272.799 192.837L272.73 192.831L272.596 192.805V192.513L272.694 192.52C272.817 192.52 272.911 192.494 272.979 192.445C273.048 192.395 273.104 192.305 273.147 192.175L273.227 191.962L272.475 189.877H272.868L273.395 191.457H273.396Z" fill="#7D80B5"></path>
  <path d="M276.014 190.875V191.986H275.641V189.149H276.687C276.998 189.149 277.241 189.228 277.416 189.387C277.592 189.546 277.681 189.755 277.681 190.016C277.681 190.291 277.595 190.504 277.422 190.653C277.25 190.801 277.004 190.876 276.682 190.876H276.014V190.875ZM276.014 190.569H276.687C276.886 190.569 277.04 190.521 277.146 190.428C277.253 190.333 277.305 190.196 277.305 190.018C277.305 189.839 277.253 189.713 277.146 189.613C277.04 189.51 276.894 189.458 276.708 189.455H276.014V190.57V190.569Z" fill="#7D80B5"></path>
  <path d="M277.98 190.911C277.98 190.704 278.021 190.519 278.102 190.354C278.183 190.189 278.295 190.061 278.441 189.971C278.586 189.881 278.752 189.836 278.936 189.836C279.223 189.836 279.456 189.935 279.633 190.135C279.81 190.333 279.898 190.599 279.898 190.927V190.953C279.898 191.159 279.859 191.342 279.78 191.505C279.7 191.669 279.589 191.795 279.442 191.887C279.296 191.978 279.128 192.023 278.939 192.023C278.652 192.023 278.421 191.924 278.244 191.724C278.067 191.526 277.979 191.262 277.979 190.935V190.909L277.98 190.911ZM278.343 190.954C278.343 191.189 278.397 191.376 278.505 191.517C278.613 191.658 278.759 191.73 278.941 191.73C279.122 191.73 279.269 191.658 279.377 191.514C279.486 191.372 279.54 191.171 279.54 190.911C279.54 190.68 279.486 190.492 279.374 190.35C279.265 190.207 279.119 190.135 278.938 190.135C278.756 190.135 278.616 190.205 278.507 190.347C278.397 190.488 278.343 190.69 278.343 190.954Z" fill="#7D80B5"></path>
  <path d="M280.743 191.986H280.383V188.993H280.743V191.986Z" fill="#7D80B5"></path>
  <path d="M281.322 189.318C281.322 189.26 281.34 189.21 281.376 189.17C281.412 189.129 281.465 189.11 281.535 189.11C281.606 189.11 281.659 189.131 281.695 189.17C281.731 189.21 281.749 189.26 281.749 189.318C281.749 189.377 281.731 189.425 281.695 189.464C281.659 189.503 281.604 189.522 281.535 189.522C281.466 189.522 281.412 189.503 281.376 189.464C281.34 189.425 281.322 189.375 281.322 189.318ZM281.713 191.986H281.352V189.877H281.713V191.986Z" fill="#7D80B5"></path>
  <path d="M283.135 191.73C283.264 191.73 283.376 191.691 283.472 191.613C283.568 191.535 283.621 191.438 283.631 191.322H283.972C283.966 191.442 283.924 191.558 283.847 191.667C283.771 191.777 283.669 191.862 283.54 191.929C283.412 191.993 283.276 192.026 283.133 192.026C282.846 192.026 282.618 191.93 282.449 191.739C282.279 191.547 282.193 191.286 282.193 190.953V190.893C282.193 190.689 282.231 190.506 282.306 190.345C282.381 190.186 282.489 190.061 282.63 189.973C282.771 189.884 282.938 189.841 283.13 189.841C283.367 189.841 283.562 189.911 283.72 190.052C283.878 190.193 283.96 190.378 283.971 190.603H283.63C283.619 190.467 283.568 190.355 283.475 190.267C283.382 190.178 283.268 190.135 283.131 190.135C282.948 190.135 282.806 190.201 282.705 190.333C282.605 190.465 282.555 190.656 282.555 190.905V190.972C282.555 191.216 282.605 191.402 282.705 191.534C282.806 191.664 282.948 191.73 283.133 191.73H283.135Z" fill="#7D80B5"></path>
  <path d="M285.068 191.457L285.559 189.877H285.945L285.097 192.311C284.965 192.661 284.757 192.837 284.471 192.837L284.403 192.831L284.268 192.805V192.513L284.366 192.52C284.487 192.52 284.583 192.494 284.651 192.445C284.72 192.395 284.775 192.305 284.819 192.175L284.898 191.962L284.146 189.877H284.54L285.065 191.457H285.068Z" fill="#7D80B5"></path>
  <path d="M219.144 187.925H213.707V193.362H219.144V187.925Z" fill="#545ED7"></path>
  <path d="M216.32 191.899L215.074 190.773C215.003 190.71 214.999 190.6 215.062 190.53C215.125 190.459 215.234 190.453 215.305 190.518L216.272 191.391L217.521 189.73C217.578 189.653 217.686 189.638 217.762 189.695C217.839 189.752 217.854 189.86 217.797 189.937L216.321 191.9L216.32 191.899Z" fill="white"></path>
  <path d="M313.373 104.598C313.298 104.511 313.166 104.5 313.077 104.575C312.989 104.65 312.98 104.784 313.055 104.871C313.626 105.536 314.272 106.142 314.971 106.675C315.009 106.704 315.054 106.719 315.097 106.719C315.16 106.719 315.224 106.69 315.264 106.636C315.335 106.545 315.317 106.413 315.224 106.342C314.547 105.827 313.924 105.24 313.371 104.598H313.373Z" fill="#E0E2FF"></path>
  <path d="M310.355 94.8382C310.241 94.8232 310.135 94.9043 310.12 95.0183C310.048 95.5587 310.012 96.1096 310.012 96.6559C310.012 96.9862 310.025 97.3209 310.051 97.6511C310.06 97.7607 310.151 97.8448 310.259 97.8448C310.265 97.8448 310.271 97.8448 310.276 97.8448C310.391 97.8358 310.477 97.7337 310.468 97.6181C310.443 97.2999 310.429 96.9757 310.429 96.6575C310.429 96.1306 310.464 95.5977 310.533 95.0754C310.548 94.9598 310.467 94.8547 310.352 94.8397L310.355 94.8382Z" fill="#E0E2FF"></path>
  <path d="M319.801 108.509C318.977 108.313 318.169 108.029 317.401 107.666C317.297 107.616 317.171 107.661 317.122 107.765C317.072 107.87 317.117 107.995 317.221 108.044C318.015 108.421 318.851 108.715 319.703 108.918C319.72 108.922 319.737 108.924 319.752 108.924C319.846 108.924 319.933 108.859 319.956 108.763C319.983 108.651 319.914 108.538 319.8 108.511L319.801 108.509Z" fill="#E0E2FF"></path>
  <path d="M310.949 100.158L310.937 100.117C310.904 100.006 310.793 99.964 310.682 99.9955C310.57 100.029 310.513 100.165 310.546 100.276C310.8 101.12 311.141 101.938 311.558 102.705C311.596 102.775 311.668 102.814 311.743 102.814C311.777 102.814 311.812 102.807 311.843 102.789C311.945 102.733 311.983 102.606 311.927 102.504C311.522 101.762 311.193 100.971 310.949 100.156V100.158Z" fill="#E0E2FF"></path>
  <path d="M329.534 106.683C328.836 107.164 328.085 107.574 327.299 107.9C327.192 107.945 327.141 108.067 327.186 108.175C327.219 108.256 327.297 108.304 327.38 108.304C327.407 108.304 327.434 108.299 327.461 108.287C328.273 107.95 329.052 107.526 329.773 107.028C329.867 106.962 329.891 106.831 329.827 106.735C329.761 106.639 329.63 106.617 329.535 106.681L329.534 106.683Z" fill="#E0E2FF"></path>
  <path d="M334.521 94.1372C334.631 94.6491 334.71 95.1654 334.752 95.6833C334.761 95.7929 334.853 95.8754 334.961 95.8754C334.967 95.8754 334.973 95.8754 334.977 95.8754C335.093 95.8664 335.178 95.7643 335.169 95.6488C335.127 95.1429 335.052 94.6371 334.949 94.1357H334.52L334.521 94.1372Z" fill="#E0E2FF"></path>
  <path d="M324.859 108.628C324.023 108.786 323.168 108.856 322.324 108.837C322.201 108.832 322.112 108.925 322.109 109.041C322.106 109.156 322.198 109.253 322.314 109.256C322.411 109.259 322.509 109.259 322.606 109.259C323.385 109.259 324.169 109.185 324.937 109.039C325.051 109.018 325.126 108.907 325.104 108.795C325.083 108.681 324.973 108.607 324.859 108.628Z" fill="#E0E2FF"></path>
  <path d="M334.926 98.0472C334.81 98.0322 334.705 98.1132 334.691 98.2273C334.582 99.0679 334.384 99.8995 334.1 100.701C334.061 100.811 334.12 100.931 334.228 100.968C334.25 100.976 334.274 100.98 334.298 100.98C334.385 100.98 334.465 100.926 334.496 100.841C334.789 100.011 334.995 99.1505 335.107 98.2814C335.122 98.1658 335.041 98.0607 334.927 98.0457L334.926 98.0472Z" fill="#E0E2FF"></path>
  <path d="M333.296 102.93C333.197 102.87 333.068 102.902 333.008 103.001C332.565 103.727 332.046 104.407 331.465 105.024C331.386 105.108 331.39 105.242 331.474 105.321C331.515 105.36 331.566 105.378 331.618 105.378C331.674 105.378 331.729 105.356 331.771 105.312C332.373 104.674 332.911 103.97 333.367 103.22C333.427 103.121 333.395 102.992 333.296 102.932V102.93Z" fill="#E0E2FF"></path>
  <path d="M342 200.499C341.925 200.412 341.793 200.402 341.704 200.477C341.615 200.552 341.606 200.686 341.682 200.773C342.253 201.438 342.897 202.044 343.598 202.577C343.636 202.605 343.681 202.619 343.724 202.619C343.787 202.619 343.851 202.59 343.891 202.536C343.962 202.445 343.944 202.313 343.85 202.242C343.174 201.727 342.551 201.14 341.998 200.498L342 200.499Z" fill="#E0E2FF"></path>
  <path d="M340.782 185.916C340.683 185.855 340.554 185.887 340.494 185.985C340.036 186.734 339.655 187.534 339.362 188.361C339.323 188.47 339.38 188.59 339.489 188.628C339.512 188.635 339.536 188.64 339.56 188.64C339.646 188.64 339.727 188.586 339.758 188.5C340.042 187.7 340.41 186.927 340.854 186.204C340.914 186.105 340.882 185.976 340.785 185.916H340.782Z" fill="#E0E2FF"></path>
  <path d="M338.98 190.74C338.866 190.725 338.76 190.806 338.745 190.92C338.673 191.46 338.637 192.011 338.637 192.556C338.637 192.886 338.65 193.221 338.676 193.551C338.685 193.661 338.776 193.745 338.884 193.745C338.89 193.745 338.895 193.745 338.901 193.745C339.016 193.736 339.102 193.634 339.093 193.518C339.067 193.2 339.054 192.876 339.054 192.556C339.054 192.029 339.089 191.496 339.158 190.974C339.173 190.858 339.092 190.753 338.977 190.738L338.98 190.74Z" fill="#E0E2FF"></path>
  <path d="M339.574 196.059C339.574 196.059 339.562 196.02 339.562 196.019C339.529 195.908 339.418 195.866 339.307 195.897C339.195 195.93 339.138 196.067 339.171 196.178C339.425 197.022 339.764 197.84 340.183 198.607C340.221 198.677 340.293 198.716 340.368 198.716C340.402 198.716 340.437 198.709 340.468 198.691C340.57 198.635 340.608 198.508 340.552 198.406C340.147 197.664 339.818 196.873 339.574 196.058V196.059Z" fill="#E0E2FF"></path>
  <path d="M344.094 182.182C343.372 182.679 342.698 183.256 342.093 183.895C342.013 183.979 342.016 184.113 342.1 184.192C342.141 184.231 342.193 184.249 342.244 184.249C342.3 184.249 342.355 184.227 342.398 184.183C342.981 183.566 343.633 183.01 344.331 182.529C344.427 182.463 344.451 182.333 344.385 182.238C344.319 182.142 344.188 182.118 344.094 182.184V182.182Z" fill="#E0E2FF"></path>
  <path d="M348.428 204.411C347.604 204.214 346.796 203.931 346.028 203.567C345.924 203.518 345.798 203.563 345.749 203.668C345.699 203.773 345.744 203.898 345.848 203.947C346.642 204.324 347.478 204.618 348.33 204.821C348.347 204.825 348.363 204.827 348.38 204.827C348.475 204.827 348.562 204.762 348.584 204.666C348.611 204.554 348.541 204.441 348.428 204.414V204.411Z" fill="#E0E2FF"></path>
  <path d="M354.163 180.308C353.308 180.102 352.43 179.988 351.555 179.966C351.439 179.975 351.343 180.054 351.34 180.17C351.337 180.285 351.428 180.381 351.544 180.384C352.391 180.405 353.239 180.516 354.066 180.715C354.082 180.719 354.099 180.721 354.115 180.721C354.21 180.721 354.295 180.656 354.319 180.56C354.346 180.447 354.277 180.335 354.165 180.306L354.163 180.308Z" fill="#E0E2FF"></path>
  <path d="M353.484 204.53C352.648 204.687 351.793 204.758 350.949 204.738C350.826 204.732 350.737 204.827 350.734 204.942C350.731 205.058 350.823 205.154 350.939 205.157C351.036 205.16 351.134 205.16 351.231 205.16C352.01 205.16 352.794 205.087 353.562 204.941C353.676 204.92 353.751 204.809 353.729 204.696C353.708 204.582 353.598 204.509 353.484 204.53Z" fill="#E0E2FF"></path>
  <path d="M348.931 180.177C348.491 180.26 348.05 180.366 347.62 180.495C347.21 180.618 346.802 180.764 346.409 180.926C346.302 180.97 346.251 181.093 346.295 181.201C346.328 181.282 346.406 181.33 346.488 181.33C346.515 181.33 346.542 181.325 346.568 181.313C346.949 181.156 347.344 181.016 347.74 180.896C348.156 180.771 348.582 180.668 349.009 180.588C349.123 180.567 349.198 180.458 349.175 180.344C349.154 180.23 349.046 180.155 348.931 180.177Z" fill="#E0E2FF"></path>
  <path d="M180.451 180.988C180.353 180.988 180.256 180.988 180.158 180.985C180.043 180.982 179.951 180.885 179.954 180.77C179.957 180.654 180.046 180.56 180.169 180.566C181.012 180.585 181.869 180.515 182.706 180.357C182.82 180.336 182.929 180.41 182.95 180.524C182.971 180.638 182.898 180.747 182.784 180.768C182.015 180.914 181.232 180.988 180.452 180.988H180.451ZM177.598 180.651C177.581 180.651 177.565 180.65 177.55 180.645C176.697 180.443 175.861 180.148 175.067 179.772C174.962 179.722 174.917 179.598 174.968 179.493C175.017 179.387 175.143 179.342 175.247 179.393C176.015 179.757 176.823 180.042 177.647 180.237C177.76 180.264 177.829 180.377 177.803 180.489C177.781 180.585 177.694 180.65 177.599 180.65L177.598 180.651ZM185.223 180.031C185.14 180.031 185.062 179.983 185.029 179.902C184.984 179.796 185.035 179.673 185.142 179.628C185.927 179.302 186.679 178.892 187.377 178.41C187.471 178.344 187.603 178.368 187.668 178.464C187.734 178.56 187.71 178.691 187.614 178.756C186.892 179.254 186.114 179.677 185.302 180.015C185.275 180.025 185.248 180.031 185.221 180.031H185.223ZM172.944 178.448C172.899 178.448 172.856 178.434 172.818 178.404C172.119 177.871 171.473 177.264 170.901 176.6C170.826 176.512 170.835 176.379 170.924 176.304C171.013 176.229 171.145 176.238 171.22 176.327C171.772 176.969 172.397 177.556 173.072 178.071C173.164 178.142 173.182 178.272 173.112 178.365C173.07 178.419 173.009 178.448 172.946 178.448H172.944ZM189.462 177.106C189.411 177.106 189.358 177.086 189.318 177.049C189.233 176.969 189.229 176.837 189.308 176.752C189.891 176.135 190.409 175.455 190.852 174.728C190.912 174.629 191.041 174.598 191.14 174.658C191.239 174.718 191.27 174.847 191.21 174.946C190.752 175.696 190.215 176.4 189.615 177.038C189.574 177.082 189.517 177.104 189.462 177.104V177.106ZM169.588 174.544C169.513 174.544 169.442 174.505 169.403 174.434C168.985 173.667 168.644 172.849 168.392 172.005C168.359 171.894 168.416 171.758 168.527 171.725C168.638 171.693 168.749 171.735 168.782 171.846L168.794 171.887C169.039 172.702 169.367 173.491 169.773 174.234C169.828 174.337 169.791 174.464 169.689 174.52C169.657 174.538 169.623 174.545 169.588 174.545V174.544ZM192.141 172.709C192.118 172.709 192.094 172.705 192.07 172.697C191.961 172.658 191.904 172.54 191.943 172.43C192.225 171.629 192.425 170.796 192.534 169.957C192.549 169.841 192.653 169.76 192.77 169.776C192.885 169.791 192.965 169.897 192.951 170.012C192.839 170.881 192.633 171.743 192.341 172.571C192.311 172.657 192.229 172.711 192.142 172.711L192.141 172.709ZM168.105 169.571C167.997 169.571 167.905 169.488 167.896 169.377C167.869 169.047 167.857 168.712 167.857 168.382C167.857 167.837 167.893 167.286 167.965 166.746C167.981 166.632 168.086 166.551 168.201 166.566C168.317 166.581 168.396 166.686 168.381 166.801C168.312 167.324 168.278 167.857 168.278 168.383C168.278 168.703 168.291 169.026 168.317 169.344C168.326 169.46 168.24 169.56 168.125 169.571C168.119 169.571 168.113 169.571 168.108 169.571H168.105ZM192.804 167.604C192.696 167.604 192.605 167.522 192.596 167.412C192.527 166.57 192.369 165.728 192.126 164.912C192.093 164.801 192.156 164.683 192.267 164.65C192.378 164.617 192.495 164.68 192.528 164.792C192.78 165.637 192.944 166.507 193.015 167.378C193.024 167.493 192.938 167.594 192.822 167.604C192.816 167.604 192.81 167.604 192.806 167.604H192.804ZM168.778 164.467C168.754 164.467 168.731 164.463 168.707 164.455C168.597 164.416 168.54 164.296 168.579 164.188C168.872 163.361 169.253 162.561 169.711 161.812C169.771 161.713 169.9 161.681 169.999 161.743C170.098 161.803 170.13 161.932 170.068 162.031C169.626 162.756 169.256 163.529 168.973 164.328C168.943 164.413 168.862 164.467 168.775 164.467H168.778ZM191.333 162.669C191.258 162.669 191.186 162.63 191.149 162.56C190.743 161.814 190.257 161.108 189.705 160.464C189.63 160.376 189.639 160.243 189.727 160.168C189.816 160.093 189.948 160.104 190.023 160.191C190.595 160.857 191.098 161.587 191.517 162.358C191.572 162.46 191.535 162.588 191.432 162.644C191.401 162.66 191.366 162.669 191.332 162.669H191.333ZM171.464 160.075C171.412 160.075 171.361 160.056 171.32 160.018C171.236 159.939 171.233 159.805 171.313 159.721C171.918 159.082 172.59 158.507 173.314 158.008C173.41 157.942 173.54 157.966 173.605 158.062C173.671 158.157 173.647 158.289 173.551 158.354C172.853 158.834 172.201 159.391 171.617 160.008C171.575 160.051 171.52 160.074 171.464 160.074V160.075ZM187.983 158.76C187.938 158.76 187.895 158.747 187.856 158.717C187.18 158.201 186.449 157.755 185.684 157.392C185.578 157.342 185.535 157.216 185.584 157.112C185.634 157.009 185.759 156.964 185.864 157.013C186.656 157.39 187.413 157.851 188.111 158.385C188.202 158.456 188.22 158.588 188.15 158.679C188.108 158.733 188.046 158.762 187.983 158.762V158.76ZM175.706 157.157C175.624 157.157 175.546 157.109 175.513 157.028C175.469 156.922 175.519 156.799 175.627 156.755C176.021 156.591 176.428 156.447 176.838 156.324C177.269 156.195 177.71 156.089 178.148 156.006C178.264 155.985 178.372 156.06 178.393 156.174C178.414 156.288 178.339 156.398 178.226 156.419C177.802 156.498 177.375 156.602 176.958 156.727C176.562 156.845 176.167 156.986 175.786 157.144C175.76 157.154 175.733 157.16 175.706 157.16V157.157ZM183.333 156.549C183.316 156.549 183.3 156.548 183.283 156.543C182.456 156.345 181.608 156.234 180.762 156.213C180.646 156.21 180.555 156.114 180.558 155.999C180.561 155.883 180.657 155.802 180.772 155.794C181.649 155.817 182.527 155.931 183.381 156.137C183.494 156.164 183.563 156.276 183.536 156.39C183.513 156.486 183.426 156.551 183.331 156.551L183.333 156.549Z" fill="#E0E2FF"></path>
  <path d="M328.509 159.079C327.78 159.079 327.041 158.875 326.387 158.448C324.584 157.275 324.072 154.853 325.246 153.051C325.815 152.177 326.69 151.578 327.709 151.362C328.731 151.147 329.773 151.341 330.644 151.91C331.517 152.479 332.118 153.352 332.332 154.373C332.549 155.392 332.353 156.434 331.784 157.308C331.038 158.454 329.785 159.08 328.509 159.08V159.079ZM328.52 151.856C327.433 151.856 326.366 152.387 325.729 153.364C325.245 154.109 325.079 154.996 325.263 155.865C325.447 156.734 325.958 157.479 326.701 157.964C327.445 158.448 328.334 158.612 329.201 158.43C330.07 158.246 330.815 157.735 331.3 156.992C331.784 156.248 331.95 155.361 331.766 154.492C331.582 153.623 331.072 152.878 330.329 152.393C329.77 152.03 329.141 151.856 328.52 151.856Z" fill="#E0E2FF"></path>
  <path d="M193.04 137.514C192.31 137.514 191.573 137.309 190.917 136.883C190.044 136.314 189.443 135.441 189.228 134.42C189.012 133.401 189.207 132.358 189.776 131.485C190.345 130.612 191.219 130.011 192.24 129.797C193.26 129.581 194.302 129.776 195.174 130.345C196.977 131.518 197.489 133.94 196.315 135.742C195.569 136.889 194.315 137.514 193.038 137.514H193.04ZM193.053 130.289C192.822 130.289 192.589 130.313 192.36 130.363C191.491 130.547 190.746 131.058 190.261 131.801C189.776 132.545 189.611 133.432 189.794 134.301C189.979 135.17 190.489 135.915 191.232 136.4C192.769 137.399 194.83 136.963 195.831 135.429C196.831 133.893 196.396 131.829 194.86 130.83C194.314 130.474 193.691 130.291 193.055 130.291L193.053 130.289Z" fill="#E0E2FF"></path>
  <path d="M308.699 195.632C307.611 197.304 305.373 197.777 303.701 196.688C302.028 195.6 301.556 193.362 302.644 191.69C303.732 190.018 305.97 189.545 307.642 190.633C309.314 191.721 309.787 193.959 308.699 195.632Z" fill="#E0E2FF"></path>
  <path d="M201.387 199.162C200.298 200.834 198.06 201.307 196.388 200.219C194.716 199.131 194.243 196.893 195.331 195.22C196.42 193.548 198.658 193.075 200.33 194.164C202.002 195.252 202.475 197.49 201.387 199.162Z" fill="#E0E2FF"></path>
  <path d="M305.781 122.445L305.744 125.415L307.315 127.937L304.345 127.9L301.825 129.471L301.861 126.501L300.289 123.98L303.26 124.016L305.781 122.445Z" fill="#E0E2FF"></path>
  <path d="M166.988 103.675L169.205 105.653L172.138 106.123L170.161 108.34L169.691 111.273L167.474 109.294L164.541 108.826L166.519 106.609L166.988 103.675Z" fill="#E0E2FF"></path>
  <path d="M163.015 135.777C163.015 135.777 170.797 161.872 155.138 165.437L154.721 176.19L144.547 181.313L129.379 175.209L131.048 142.098L163.015 135.778V135.777Z" fill="#FFCEC8"></path>
  <path d="M163.015 135.777C163.015 135.777 159.488 143.506 149.83 139.46C149.83 139.46 146.437 138.437 145.418 142.399C145.059 143.795 144.536 145.431 143.31 146.317C142.873 146.634 142.306 146.812 141.785 146.673C141.416 146.574 141.105 146.329 140.769 146.144C139.161 145.262 136.97 145.934 135.909 147.431C133.716 150.523 136.015 154.829 139.793 154.703C140.382 154.684 141.063 154.621 141.781 154.474C141.781 154.474 141.817 161.54 130.08 161.29L130.184 139.403C130.184 139.403 129.426 133.946 134.429 135.894L133.816 132.27C133.816 132.27 138.993 136.611 147.462 131.807C155.932 127.002 160.359 123.583 164.559 128.014C168.758 132.443 166.294 137.679 163.813 138.788L163.014 135.778L163.015 135.777Z" fill="#464646"></path>
  <path d="M155.139 165.436C155.139 165.436 145.771 166.353 140.73 161.742C140.73 161.742 143.116 168.223 154.956 169.049L155.137 165.436H155.139Z" fill="#FFB6AD"></path>
  <path d="M153.027 150.262C153.095 150.867 153.514 151.317 153.962 151.268C154.411 151.218 154.72 150.687 154.653 150.08C154.585 149.475 154.167 149.025 153.719 149.075C153.27 149.124 152.961 149.655 153.029 150.262H153.027Z" fill="#464646"></path>
  <path d="M154.134 153.022L152.447 153.21C151.582 153.306 150.731 153.06 150.052 152.516C149.372 151.973 148.946 151.197 148.85 150.332L148.566 147.788L156.727 146.88L157.011 149.424C157.107 150.289 156.861 151.14 156.318 151.818C155.882 152.362 155.298 152.744 154.64 152.924C154.476 152.97 154.306 153.001 154.134 153.021V153.022ZM149.096 148.213L149.326 150.28C149.408 151.017 149.772 151.679 150.351 152.141C150.931 152.605 151.656 152.813 152.393 152.732L154.08 152.545C154.817 152.462 155.477 152.099 155.941 151.52C156.405 150.94 156.613 150.215 156.532 149.478L156.303 147.411L149.096 148.214V148.213Z" fill="white"></path>
  <path d="M161.182 149.354C161.249 149.959 161.668 150.409 162.117 150.359C162.566 150.31 162.875 149.778 162.807 149.172C162.74 148.567 162.321 148.117 161.874 148.166C161.425 148.216 161.116 148.747 161.183 149.354H161.182Z" fill="#464646"></path>
  <path d="M164.444 151.874L162.757 152.061C160.972 152.26 159.358 150.97 159.159 149.186L158.875 146.641L167.036 145.733L167.32 148.277C167.416 149.142 167.17 149.993 166.626 150.672C166.191 151.215 165.607 151.598 164.948 151.778C164.785 151.823 164.615 151.854 164.442 151.874H164.444ZM159.406 147.065L159.636 149.131C159.806 150.654 161.182 151.754 162.703 151.584L164.39 151.397C165.127 151.314 165.789 150.951 166.251 150.371C166.715 149.792 166.923 149.067 166.842 148.33L166.613 146.263L159.406 147.066V147.065Z" fill="white"></path>
  <path d="M159.823 156.021C159.953 158.159 158.365 160.027 156.219 160.227C154.072 160.427 152.166 158.882 151.9 156.758L159.823 156.021Z" fill="white"></path>
  <path d="M157.662 146.003L161.134 152.666L157.968 153.879L157.662 146.003Z" fill="#FFCEC8"></path>
  <path d="M158.031 154.112C158.039 154.11 158.046 154.107 158.054 154.104L161.219 152.891C161.284 152.867 161.333 152.816 161.357 152.752C161.381 152.687 161.377 152.617 161.345 152.555L157.873 145.892C157.812 145.775 157.668 145.729 157.549 145.79C157.432 145.852 157.386 145.996 157.447 146.114L160.794 152.539L157.881 153.656C157.756 153.704 157.695 153.842 157.743 153.966C157.788 154.082 157.912 154.145 158.03 154.112H158.031Z" fill="#FF7867"></path>
  <path d="M150.947 145.242C151.017 145.501 151.275 145.661 151.54 145.612L154.297 145.08C154.696 144.971 154.93 144.559 154.822 144.16C154.705 143.734 154.249 143.501 153.836 143.657L151.262 144.627C151.014 144.72 150.878 144.987 150.948 145.242H150.947Z" fill="#464646"></path>
  <path d="M162.798 144.816C162.802 145.085 162.6 145.311 162.332 145.337L159.536 145.601C159.122 145.609 158.781 145.278 158.774 144.866C158.766 144.424 159.14 144.072 159.58 144.106L162.323 144.315C162.588 144.334 162.793 144.553 162.798 144.818V144.816Z" fill="#464646"></path>
  <path d="M149.06 148.412L166.707 146.448C166.946 146.421 167.117 146.206 167.09 145.969C167.063 145.73 166.848 145.559 166.611 145.586L148.964 147.551C148.725 147.578 148.554 147.793 148.581 148.03C148.608 148.268 148.823 148.439 149.06 148.412Z" fill="#545ED7"></path>
  <path d="M237.363 184.317C237.363 184.317 246.607 179.455 252.156 193.021L238.839 192.4L237.363 184.317Z" fill="#464646"></path>
  <path d="M247.262 175.616L258.098 166.486C258.507 166.135 259.123 166.18 259.477 166.587C259.801 166.959 259.798 167.513 259.471 167.882L254.91 173.034C255.561 172.393 256.615 172.432 257.218 173.116L257.373 173.292C257.909 173.9 257.901 174.814 257.355 175.413L255.923 176.828L256.397 176.351C257.032 175.713 258.083 175.77 258.646 176.474C259.115 177.064 259.079 177.909 258.559 178.455L257.382 179.689C257.816 179.235 258.553 179.278 258.931 179.779L259.088 179.988C259.374 180.368 259.359 180.895 259.052 181.256L252.973 186.777L250.428 193.659L236.66 189.547L243.655 181.668L243.524 177.021C243.547 176.588 243.629 176.16 243.77 175.751L245.069 171.976C245.169 171.681 245.326 171.408 245.528 171.173L247.514 168.853C247.771 168.553 248.191 168.456 248.554 168.609C249.02 168.807 249.233 169.349 249.026 169.811L247.982 172.144C247.948 172.22 247.41 173.997 247.394 174.08L247.26 175.614L247.262 175.616Z" fill="#FFC0C0"></path>
  <path d="M252.684 179.367C252.627 179.367 252.57 179.364 252.514 179.359C251.994 179.31 251.525 179.033 251.227 178.604C250.739 177.902 250.823 176.95 251.425 176.342L254.707 172.999C254.742 172.963 254.799 172.962 254.835 172.999C254.871 173.034 254.871 173.091 254.835 173.127L251.552 176.471C251.01 177.017 250.935 177.872 251.374 178.504C251.641 178.889 252.063 179.135 252.529 179.18C252.996 179.226 253.457 179.063 253.795 178.735L256.309 176.237C256.344 176.202 256.401 176.201 256.437 176.237C256.471 176.273 256.471 176.33 256.437 176.365L253.922 178.862C253.588 179.188 253.145 179.367 252.684 179.367Z" fill="#FD7776"></path>
  <path d="M254.31 182.154C254.28 182.154 254.251 182.154 254.221 182.152C253.744 182.127 253.303 181.896 253.01 181.517L252.878 181.346C252.37 180.693 252.429 179.758 253.016 179.174C253.05 179.14 253.109 179.138 253.143 179.174C253.18 179.209 253.18 179.267 253.143 179.302C252.623 179.823 252.57 180.653 253.022 181.235L253.154 181.406C253.415 181.743 253.807 181.948 254.232 181.971C254.646 182.001 255.068 181.831 255.363 181.525L257.207 179.647C257.241 179.611 257.298 179.61 257.334 179.647C257.37 179.682 257.37 179.739 257.334 179.775L255.491 181.653C255.18 181.975 254.754 182.155 254.308 182.155L254.31 182.154Z" fill="#FD7776"></path>
  <path d="M256.046 183.856C256.025 183.856 256.004 183.856 255.983 183.855C255.647 183.837 255.334 183.673 255.129 183.407L255.037 183.289C254.68 182.826 254.722 182.169 255.135 181.756C255.169 181.722 255.226 181.72 255.262 181.756C255.297 181.791 255.297 181.849 255.262 181.884C254.914 182.232 254.878 182.787 255.18 183.176L255.271 183.295C255.446 183.52 255.708 183.656 255.992 183.673C256.283 183.685 256.552 183.58 256.75 183.374C256.784 183.338 256.841 183.338 256.878 183.371C256.914 183.406 256.915 183.463 256.879 183.499C256.66 183.727 256.358 183.853 256.044 183.853L256.046 183.856Z" fill="#FD7776"></path>
  <path d="M252.357 191.316C252.276 191.201 252.197 191.085 252.116 190.97C251.338 189.998 250.295 189.186 249.075 188.909C247.626 188.559 246.085 188.991 244.585 188.961C242.44 188.93 240.313 187.932 238.929 186.283C238.381 185.632 237.951 184.899 237.617 184.126L225.291 198.472L220.621 203.902L214.628 210.882C211.222 207.76 207.818 204.635 204.415 201.517C202.241 199.506 200.047 197.505 197.869 195.509C197.794 195.438 197.729 195.387 197.656 195.317C192.438 190.521 187.614 185.317 181.802 181.222C179.938 179.901 177.974 178.651 175.943 177.483L176.284 213.201L207.882 239.807C209.355 240.857 211.172 241.77 213.173 242.5C213.188 242.506 213.205 242.512 213.221 242.518C216.379 243.666 219.961 243.132 222.591 241.041C222.621 241.017 222.649 240.994 222.679 240.97C224.074 239.855 225.268 238.656 226.18 237.407L253.57 193.515C253.237 192.742 252.854 192.007 252.357 191.318V191.316Z" fill="#464646"></path>
  <path d="M189.053 254.287L185.277 183.883C175.924 176.6 172.368 174.951 158.3 172.57C157.794 172.484 154.693 219.333 152.449 254.287H189.053Z" fill="#464646"></path>
  <path d="M152.664 254.287L158.3 172.572L154.981 169.897L154.758 172.524L144.345 179.734L129.504 171.387L128.137 170.617L124.081 232.545L124.074 232.681L124.023 233.466L124.014 233.59L123.988 233.992L123.976 234.161L123.955 234.498L123.954 234.52L123.939 234.738L123.918 235.056L123.894 235.434L123.864 235.877V235.882L123.847 236.135L123.811 236.703L123.794 236.947L122.658 254.287H152.664Z" fill="#FF7867"></path>
  <path d="M141.07 254.287H141.834C141.427 253.753 141.119 253.254 140.905 252.754C141.607 237.675 142.418 222.384 143.201 207.596C143.685 198.491 144.183 189.075 144.651 179.799C144.66 179.629 144.53 179.485 144.36 179.478C144.19 179.47 144.046 179.599 144.039 179.769C143.57 189.045 143.071 198.46 142.589 207.565C141.804 222.377 140.992 237.692 140.289 252.796C140.288 252.841 140.295 252.887 140.312 252.927C140.499 253.38 140.749 253.826 141.07 254.288V254.287Z" fill="white"></path>
  <path d="M151.479 183.891C151.573 183.888 151.665 183.84 151.722 183.757L158.481 173.795C158.576 173.655 158.539 173.464 158.4 173.368C158.26 173.274 158.07 173.31 157.974 173.449L151.369 183.184L144.49 179.512C144.394 179.461 144.277 179.464 144.184 179.523L138.762 182.898L127.971 175.584C127.832 175.489 127.641 175.525 127.545 175.665C127.45 175.805 127.486 175.995 127.626 176.091L138.582 183.518C138.682 183.586 138.813 183.589 138.917 183.524L144.358 180.136L151.324 183.855C151.374 183.88 151.426 183.892 151.479 183.891Z" fill="white"></path>
  <path d="M145.311 189.342C145.337 190.096 145.967 190.686 146.719 190.66C147.473 190.635 148.063 190.004 148.037 189.252C148.012 188.499 147.381 187.909 146.629 187.934C145.876 187.96 145.286 188.59 145.311 189.342Z" fill="white"></path>
  <path d="M144.05 219.607C144.075 220.361 144.706 220.951 145.458 220.925C146.211 220.9 146.801 220.269 146.775 219.517C146.75 218.764 146.12 218.174 145.368 218.2C144.614 218.225 144.024 218.855 144.05 219.607Z" fill="white"></path>
  <path d="M142.737 248.357C142.763 249.11 143.393 249.7 144.145 249.674C144.899 249.649 145.489 249.018 145.463 248.266C145.437 247.513 144.807 246.923 144.055 246.949C143.302 246.974 142.712 247.604 142.737 248.357Z" fill="white"></path>
  <path d="M122.72 254.287L128.137 170.617L108.755 174.263C103.321 175.285 98.3467 177.735 93.6726 180.688C78.7989 190.085 72.7814 234.064 70.7715 254.286H122.722L122.72 254.287Z" fill="#464646"></path>
  <path d="M95.9235 254.287L102.704 203.191C102.722 203.057 102.627 202.934 102.493 202.916C102.358 202.898 102.235 202.993 102.219 203.128L95.4297 254.288H95.925L95.9235 254.287Z" fill="#1F1F1F"></path>
  <path d="M249.252 203.261C249.119 203.261 248.999 203.171 248.964 203.036C248.898 202.778 247.259 196.729 239.226 197.726C236.297 198.087 233.99 197.586 232.363 196.234C230.263 194.486 230.09 191.981 230.084 191.875C230.075 191.711 230.2 191.57 230.364 191.559C230.535 191.57 230.67 191.675 230.679 191.839C230.679 191.863 230.848 194.204 232.75 195.78C234.247 197.022 236.402 197.478 239.151 197.134C247.72 196.071 249.524 202.821 249.542 202.891C249.583 203.05 249.485 203.212 249.326 203.252C249.302 203.258 249.276 203.261 249.252 203.261Z" fill="white"></path>
  <path d="M248.168 195.708C248.099 195.708 248.03 195.705 247.96 195.698C247.44 195.643 246.974 195.39 246.646 194.983C245.969 194.145 246.1 192.913 246.936 192.236C247.774 191.559 249.006 191.688 249.683 192.526C250.01 192.931 250.162 193.44 250.108 193.959C250.054 194.479 249.8 194.944 249.393 195.273C249.042 195.556 248.614 195.708 248.168 195.708ZM247.109 194.608C247.337 194.89 247.661 195.066 248.023 195.103C248.38 195.144 248.737 195.037 249.018 194.809C249.3 194.581 249.476 194.257 249.513 193.896C249.551 193.536 249.447 193.182 249.219 192.9C248.746 192.317 247.891 192.227 247.31 192.698C246.729 193.17 246.637 194.025 247.109 194.606V194.608Z" fill="white"></path>
  <path d="M129.704 168.39L128.137 170.619L129.564 171.672L129.704 168.39Z" fill="#86A430"></path>
  <path d="M72.0881 196.716C74.4961 194.2 77.8509 192.639 81.5624 192.639C86.4917 192.639 90.7966 195.395 93.088 199.487C95.0775 198.595 97.2831 198.099 99.602 198.099C108.493 198.099 115.707 205.389 115.707 214.381C115.707 223.375 108.493 230.665 99.602 230.665C98.5352 230.666 97.4718 230.559 96.429 230.348C94.412 233.955 90.5668 236.393 86.1521 236.393C84.3066 236.393 82.5572 235.965 81.0033 235.204C78.9554 240.027 74.1908 243.408 68.6373 243.408C62.8539 243.408 57.9247 239.739 56.0312 234.595C55.2045 234.771 54.3504 234.863 53.4688 234.863C46.5844 234.863 41 229.21 41 222.236C41 217.562 43.5109 213.481 47.2361 211.298C46.4678 209.529 46.0424 207.576 46.0424 205.523C46.0424 197.502 52.5393 191 60.5523 191C65.2551 191 69.4366 193.242 72.0881 196.716Z" fill="#00A1E0"></path>
  <path d="M51.8225 218.178C51.7779 218.3 51.8397 218.326 51.8568 218.347C51.9975 218.45 52.1381 218.524 52.2822 218.606C53.0437 219.011 53.7641 219.129 54.5153 219.129C56.0486 219.129 56.9988 218.312 56.9988 216.997V216.972C56.9988 215.756 55.9251 215.314 54.92 214.995L54.7863 214.953C54.0282 214.705 53.373 214.492 53.373 213.991V213.964C53.373 213.535 53.7538 213.22 54.3506 213.22C55.0092 213.22 55.7913 213.439 56.2955 213.719C56.2955 213.719 56.4431 213.814 56.498 213.671C56.5288 213.594 56.7826 212.905 56.8101 212.83C56.8375 212.749 56.7895 212.689 56.7346 212.657C56.1618 212.306 55.366 212.067 54.5393 212.067L54.3883 212.068C52.9853 212.068 52.0043 212.917 52.0043 214.133V214.159C52.0043 215.442 53.0849 215.858 54.0968 216.148L54.2614 216.198C54.9989 216.425 55.6335 216.621 55.6335 217.141V217.167C55.6335 217.642 55.2219 217.997 54.553 217.997C54.2958 217.997 53.4725 217.991 52.5807 217.427C52.4743 217.364 52.4092 217.318 52.3268 217.268C52.2822 217.24 52.1724 217.192 52.1244 217.338L51.8225 218.178ZM74.2563 218.178C74.2117 218.3 74.2734 218.326 74.2905 218.347C74.4311 218.45 74.5718 218.524 74.7158 218.606C75.4774 219.011 76.1977 219.129 76.9489 219.129C78.4822 219.129 79.4324 218.312 79.4324 216.997V216.972C79.4324 215.756 78.3588 215.314 77.3538 214.995L77.2199 214.953C76.4619 214.705 75.8067 214.492 75.8067 213.991V213.964C75.8067 213.535 76.1874 213.22 76.7843 213.22C77.4429 213.22 78.225 213.439 78.7293 213.719C78.7293 213.719 78.8767 213.814 78.9316 213.671C78.9625 213.594 79.2164 212.905 79.2438 212.83C79.2713 212.749 79.2232 212.689 79.1684 212.657C78.5955 212.306 77.7962 212.067 76.973 212.067L76.8221 212.068C75.4191 212.068 74.4381 212.917 74.4381 214.133V214.159C74.4381 215.442 75.5185 215.858 76.5305 216.148L76.6951 216.198C77.4326 216.425 78.0672 216.621 78.0672 217.141V217.167C78.0672 217.642 77.6556 217.997 76.9867 217.997C76.7294 217.997 75.9062 217.991 75.0143 217.427C74.908 217.364 74.8428 217.32 74.7605 217.268C74.733 217.25 74.6027 217.2 74.5581 217.338L74.2563 218.178ZM89.5722 215.602C89.5722 216.346 89.435 216.931 89.1606 217.345C88.893 217.754 88.4849 217.954 87.9154 217.954C87.346 217.954 86.9412 217.755 86.6771 217.345C86.4095 216.932 86.2724 216.346 86.2724 215.602C86.2724 214.86 86.4095 214.275 86.6771 213.865C86.9412 213.46 87.346 213.263 87.9154 213.263C88.4849 213.263 88.893 213.46 89.164 213.865C89.435 214.275 89.5722 214.86 89.5722 215.602ZM90.8517 214.224C90.7247 213.798 90.5292 213.423 90.2685 213.11C90.0078 212.797 89.6786 212.545 89.2875 212.362C88.8965 212.179 88.4334 212.087 87.9154 212.087C87.3975 212.087 86.9344 212.179 86.5434 212.362C86.1523 212.545 85.823 212.797 85.5623 213.11C85.3016 213.424 85.1061 213.8 84.9792 214.224C84.8557 214.648 84.7905 215.11 84.7905 215.602C84.7905 216.094 84.8557 216.558 84.9792 216.98C85.1061 217.404 85.3016 217.78 85.5623 218.094C85.823 218.407 86.1557 218.658 86.5434 218.836C86.9378 219.014 87.3975 219.105 87.9154 219.105C88.4334 219.105 88.8965 219.014 89.2875 218.836C89.6786 218.658 90.0078 218.407 90.2685 218.094C90.5292 217.781 90.7247 217.405 90.8517 216.98C90.9786 216.556 91.0403 216.093 91.0403 215.602C91.0403 215.111 90.9751 214.647 90.8517 214.224Z" fill="white"></path>
  <path fill-rule="evenodd" clip-rule="evenodd" d="M101.355 217.755C101.314 217.631 101.194 217.677 101.194 217.677C101.005 217.749 100.809 217.815 100.597 217.848C100.384 217.881 100.147 217.898 99.8969 217.898C99.276 217.898 98.7855 217.714 98.4322 217.349C98.0789 216.984 97.8799 216.394 97.8833 215.596C97.8867 214.87 98.0617 214.324 98.3739 213.908C98.686 213.494 99.1594 213.282 99.794 213.282C100.322 213.282 100.724 213.343 101.145 213.476C101.145 213.476 101.245 213.52 101.293 213.388C101.406 213.076 101.489 212.853 101.609 212.511C101.643 212.414 101.561 212.372 101.53 212.36C101.365 212.295 100.971 212.19 100.676 212.145C100.398 212.102 100.075 212.08 99.7151 212.08C99.18 212.08 98.6998 212.172 98.2916 212.355C97.8799 212.537 97.5335 212.789 97.2591 213.103C96.9846 213.416 96.7754 213.792 96.6382 214.216C96.4975 214.64 96.4289 215.105 96.4289 215.596C96.4289 216.66 96.7136 217.519 97.2796 218.149C97.8456 218.78 98.6963 219.101 99.8043 219.101C100.459 219.101 101.135 218.968 101.615 218.777C101.615 218.777 101.708 218.732 101.67 218.625L101.355 217.755ZM103.591 214.89C103.653 214.477 103.766 214.133 103.945 213.866C104.209 213.459 104.613 213.236 105.179 213.236C105.749 213.236 106.126 213.46 106.394 213.866C106.572 214.133 106.651 214.492 106.682 214.89H103.591ZM107.9 213.982C107.79 213.572 107.522 213.156 107.344 212.967C107.066 212.666 106.795 212.456 106.524 212.338C106.171 212.187 105.745 212.087 105.282 212.087C104.744 212.087 104.253 212.177 103.852 212.365C103.454 212.553 103.118 212.809 102.857 213.128C102.593 213.446 102.394 213.824 102.271 214.254C102.144 214.682 102.078 215.148 102.078 215.64C102.078 216.14 102.147 216.606 102.277 217.025C102.408 217.447 102.62 217.82 102.905 218.128C103.19 218.438 103.553 218.682 103.993 218.851C104.428 219.019 104.956 219.107 105.564 219.106C106.816 219.102 107.474 218.822 107.745 218.672C107.793 218.645 107.838 218.598 107.783 218.464L107.498 217.669C107.457 217.551 107.337 217.595 107.337 217.595C107.025 217.71 106.586 217.917 105.557 217.915C104.888 217.914 104.39 217.715 104.078 217.405C103.756 217.087 103.602 216.62 103.574 215.961L107.903 215.965C107.903 215.965 108.016 215.963 108.03 215.852C108.033 215.805 108.177 214.96 107.9 213.982ZM68.915 214.89C68.9768 214.477 69.09 214.133 69.2649 213.866C69.5291 213.459 69.9339 213.236 70.5033 213.236C71.0727 213.236 71.4465 213.46 71.7175 213.866C71.8959 214.133 71.9714 214.492 72.0022 214.89H68.915ZM73.22 213.982C73.1137 213.572 72.8426 213.156 72.6677 212.967C72.3898 212.666 72.1155 212.456 71.8445 212.338C71.4912 212.187 71.0692 212.087 70.6061 212.087C70.0641 212.087 69.5737 212.177 69.1757 212.365C68.7778 212.553 68.4417 212.809 68.1776 213.128C67.9169 213.446 67.7179 213.824 67.591 214.254C67.4675 214.682 67.4023 215.148 67.4023 215.64C67.4023 216.14 67.4675 216.606 67.5978 217.025C67.7316 217.447 67.9409 217.82 68.2256 218.128C68.5103 218.438 68.8773 218.682 69.3164 218.851C69.752 219.019 70.2803 219.107 70.8874 219.106C72.136 219.102 72.7947 218.822 73.0691 218.672C73.1171 218.645 73.1617 218.598 73.1033 218.464L72.8221 217.669C72.7775 217.551 72.6574 217.595 72.6574 217.595C72.3487 217.71 71.9096 217.917 70.8806 217.915C70.2082 217.914 69.7108 217.715 69.3987 217.405C69.0797 217.087 68.9219 216.62 68.8944 215.961L73.2234 215.965C73.2234 215.965 73.34 215.963 73.3503 215.852C73.3537 215.805 73.5013 214.96 73.22 213.982Z" fill="white"></path>
  <path d="M59.5537 217.732C59.3856 217.597 59.3616 217.562 59.3067 217.475C59.221 217.341 59.1764 217.152 59.1764 216.911C59.1764 216.529 59.3033 216.255 59.564 216.07C59.5606 216.071 59.9344 215.745 60.8194 215.757C61.4403 215.765 61.9926 215.857 61.9926 215.857V217.83H61.9961C61.9961 217.83 61.4437 217.949 60.8263 217.986C59.9447 218.039 59.5537 217.731 59.5537 217.732ZM61.2791 214.683C61.1042 214.67 60.8744 214.662 60.6034 214.662C60.2295 214.662 59.8727 214.709 59.5365 214.8C59.1969 214.89 58.8917 215.032 58.631 215.22C58.3703 215.407 58.1542 215.652 58.0032 215.936C57.8489 216.222 57.7734 216.559 57.7734 216.936C57.7734 217.32 57.8386 217.654 57.9724 217.927C58.1028 218.201 58.2948 218.429 58.5349 218.605C58.7751 218.781 59.0735 218.91 59.4165 218.989C59.7561 219.066 60.1437 219.106 60.5656 219.106C61.0081 219.106 61.4506 219.07 61.8794 218.996C62.3048 218.923 62.8261 218.818 62.9702 218.785C63.1143 218.751 63.2721 218.707 63.2721 218.707C63.3819 218.68 63.3716 218.565 63.3716 218.565V214.596C63.3716 213.726 63.1383 213.081 62.6821 212.681C62.2259 212.282 61.557 212.08 60.6926 212.08C60.3667 212.08 59.8453 212.125 59.5331 212.188C59.5331 212.188 58.5864 212.371 58.1988 212.676C58.1988 212.676 58.1131 212.73 58.1577 212.849L58.4664 213.675C58.5041 213.781 58.607 213.745 58.607 213.745C58.607 213.745 58.6412 213.732 58.679 213.71C59.5125 213.256 60.5656 213.269 60.5656 213.269C61.0321 213.269 61.3923 213.363 61.6359 213.55C61.8726 213.731 61.9926 214.005 61.9926 214.583V214.767C61.6187 214.713 61.2791 214.683 61.2791 214.683Z" fill="white"></path>
  <path fill-rule="evenodd" clip-rule="evenodd" d="M96.2026 212.445C96.2369 212.347 96.1649 212.3 96.1375 212.29C96.0655 212.261 95.695 212.183 95.4102 212.165C94.8683 212.132 94.5664 212.223 94.2954 212.345C94.0279 212.467 93.7295 212.663 93.5648 212.886V212.358C93.5648 212.284 93.5099 212.226 93.4379 212.226H92.3299C92.2579 212.226 92.203 212.284 92.203 212.358V218.831C92.203 218.903 92.2647 218.963 92.3368 218.963H93.4756C93.5477 218.963 93.6059 218.903 93.6059 218.831V215.597C93.6059 215.163 93.6539 214.73 93.75 214.458C93.8426 214.189 93.9696 213.974 94.1273 213.819C94.2851 213.665 94.467 213.558 94.6625 213.497C94.8649 213.435 95.0878 213.415 95.2422 213.415C95.472 213.415 95.719 213.474 95.719 213.474C95.8013 213.483 95.8494 213.432 95.8768 213.356C95.9523 213.158 96.1615 212.564 96.2026 212.445ZM85.5243 209.445C85.3871 209.403 85.2602 209.374 85.0955 209.343C84.9309 209.313 84.7319 209.298 84.509 209.298C83.7234 209.298 83.1095 209.52 82.6738 209.957C82.2451 210.392 81.9501 211.055 81.806 211.926L81.7511 212.22H80.7666C80.7666 212.22 80.65 212.215 80.6226 212.346L80.4613 213.249C80.451 213.334 80.4888 213.389 80.602 213.389H81.559L80.5882 218.819C80.5128 219.257 80.427 219.616 80.331 219.889C80.2349 220.158 80.1423 220.36 80.0257 220.507C79.916 220.648 79.813 220.752 79.6312 220.813C79.4837 220.863 79.3088 220.886 79.1201 220.886C79.0172 220.886 78.8765 220.869 78.7736 220.848C78.6707 220.828 78.6193 220.805 78.5404 220.773C78.5404 220.773 78.4272 220.73 78.3826 220.842C78.3483 220.934 78.0944 221.637 78.0636 221.724C78.0327 221.81 78.0739 221.877 78.1288 221.898C78.2591 221.943 78.3517 221.972 78.5267 222.014C78.7668 222.071 78.9692 222.074 79.1613 222.074C79.5592 222.074 79.9228 222.017 80.2246 221.908C80.5265 221.799 80.7906 221.607 81.0239 221.35C81.2743 221.07 81.4355 220.778 81.5864 220.378C81.7339 219.983 81.8643 219.492 81.9672 218.921L82.9414 213.389H84.3684C84.3684 213.389 84.4884 213.393 84.5124 213.261L84.6736 212.359C84.6839 212.273 84.6496 212.22 84.533 212.22H83.1472C83.1575 212.188 83.2192 211.7 83.377 211.24C83.4456 211.045 83.5725 210.886 83.6789 210.778C83.7852 210.671 83.9087 210.595 84.0425 210.552C84.1797 210.507 84.3375 210.485 84.509 210.485C84.6393 210.485 84.7662 210.5 84.8623 210.521C84.9995 210.549 85.051 210.564 85.0853 210.575C85.2259 210.618 85.2465 210.576 85.2739 210.508L85.6032 209.597C85.6375 209.499 85.5552 209.457 85.5243 209.445ZM66.1813 218.831C66.1813 218.904 66.1298 218.962 66.0578 218.962H64.9087C64.8366 218.962 64.7852 218.904 64.7852 218.831V209.569C64.7852 209.497 64.8366 209.438 64.9087 209.438H66.0578C66.1298 209.438 66.1813 209.497 66.1813 209.569V218.831Z" fill="white"></path>
</svg>
